<?xml version="1.0"?>
<svg xmlns="http://www.w3.org/2000/svg" version="1.1" width="500px" height="500px" viewBox="0 0 200 200" style="overflow:hidden!important;">
  <defs id="SvgjsDefs7565">
    <radialGradient id="SvgjsRadialGradient7631" cx="100" cy="114" r="41" gradientUnits="userSpaceOnUse" class="svga-on-canvas-facehighlight-gradient-single-0">
      <stop id="SvgjsStop7632" stop-opacity="0.5" stop-color="#ffe2d6" offset="0"/>
      <stop id="SvgjsStop7633" stop-opacity="0" stop-color="#ffd0bc" offset="0.9"/>
    </radialGradient>
    <radialGradient id="SvgjsRadialGradient7635" cx="100" cy="54" r="37" gradientUnits="userSpaceOnUse" class="svga-on-canvas-facehighlight-gradient-single-1">
      <stop id="SvgjsStop7636" stop-opacity="0.5" stop-color="#ffe2d6" offset="0"/>
      <stop id="SvgjsStop7637" stop-opacity="0" stop-color="#ffd0bc" offset="0.9"/>
    </radialGradient>
    <linearGradient id="SvgjsLinearGradient7893" x1="100" y1="141" x2="100" y2="138" gradientUnits="userSpaceOnUse" class="svga-on-canvas-mouth-gradient-single-0">
      <stop id="SvgjsStop7894" stop-opacity="1" stop-color="#f7c1aa" offset="0.1"/>
      <stop id="SvgjsStop7895" stop-opacity="1" stop-color="#f0b399" offset="1"/>
    </linearGradient>
    <radialGradient id="SvgjsRadialGradient9213" cx="126.035" cy="84.795" r="10.908" gradientTransform="matrix(-1 0 0 1 200 0)" gradientUnits="userSpaceOnUse" class="svga-on-canvas-eyesback-gradient-left-0">
      <stop id="SvgjsStop9214" stop-opacity="1" stop-color="#ffffff" offset="0"/>
      <stop id="SvgjsStop9215" stop-opacity="1" stop-color="#fdfefe" offset="0.544"/>
      <stop id="SvgjsStop9216" stop-opacity="1" stop-color="#f6f8f9" offset="0.74"/>
      <stop id="SvgjsStop9217" stop-opacity="1" stop-color="#eaeff2" offset="0.879"/>
      <stop id="SvgjsStop9218" stop-opacity="1" stop-color="#d9e3e8" offset="0.992"/>
      <stop id="SvgjsStop9219" stop-opacity="1" stop-color="#d8e2e7" offset="1"/>
    </radialGradient>
    <radialGradient id="SvgjsRadialGradient9221" cx="125.637" cy="84.795" r="10.908" gradientUnits="userSpaceOnUse" class="svga-on-canvas-eyesback-gradient-right-0">
      <stop id="SvgjsStop9222" stop-opacity="1" stop-color="#ffffff" offset="0"/>
      <stop id="SvgjsStop9223" stop-opacity="1" stop-color="#fdfefe" offset="0.544"/>
      <stop id="SvgjsStop9224" stop-opacity="1" stop-color="#f6f8f9" offset="0.74"/>
      <stop id="SvgjsStop9225" stop-opacity="1" stop-color="#eaeff2" offset="0.879"/>
      <stop id="SvgjsStop9226" stop-opacity="1" stop-color="#d9e3e8" offset="0.992"/>
      <stop id="SvgjsStop9227" stop-opacity="1" stop-color="#d8e2e7" offset="1"/>
    </radialGradient>
    <radialGradient id="SvgjsRadialGradient9229" cx="126.035" cy="84.795" r="10.908" gradientTransform="matrix(-1 0 0 1 200 0)" gradientUnits="userSpaceOnUse" class="svga-on-canvas-eyesfront-gradient-left-0">
      <stop id="SvgjsStop9230" stop-opacity="1" stop-color="#ffffff" offset="0"/>
      <stop id="SvgjsStop9231" stop-opacity="1" stop-color="#fdfefe" offset="0.544"/>
      <stop id="SvgjsStop9232" stop-opacity="1" stop-color="#f6f8f9" offset="0.74"/>
      <stop id="SvgjsStop9233" stop-opacity="1" stop-color="#eaeff2" offset="0.879"/>
      <stop id="SvgjsStop9234" stop-opacity="1" stop-color="#d9e3e8" offset="0.992"/>
      <stop id="SvgjsStop9235" stop-opacity="1" stop-color="#d8e2e7" offset="1"/>
    </radialGradient>
    <radialGradient id="SvgjsRadialGradient9239" cx="123.813" cy="83.449" fx="136.255" fy="83.484" r="17.696" gradientTransform="matrix(0.9998 0.0208 0.0166 -0.7998 -48.9873 147.6178)" gradientUnits="userSpaceOnUse" class="svga-on-canvas-eyesfront-gradient-left-3">
      <stop id="SvgjsStop9240" stop-opacity="1" stop-color="#f0b399" offset="0"/>
      <stop id="SvgjsStop9241" stop-opacity="0.3" stop-color="#f0b399" offset="0.7"/>
      <stop id="SvgjsStop9242" stop-opacity="0" stop-color="#ffd0bc" offset="1"/>
    </radialGradient>
    <radialGradient id="SvgjsRadialGradient9244" cx="122.749" cy="106.061" r="28.568" gradientTransform="matrix(-0.8829 -0.4695 -0.4131 0.777 229.4492 81.2793)" gradientUnits="userSpaceOnUse" class="svga-on-canvas-eyesfront-gradient-left-4">
      <stop id="SvgjsStop9245" stop-opacity="0" stop-color="#000000" offset="0.9"/>
      <stop id="SvgjsStop9246" stop-opacity="0.2" stop-color="#000000" offset="1"/>
    </radialGradient>
    <radialGradient id="SvgjsRadialGradient9250" cx="125.637" cy="84.795" r="10.908" gradientUnits="userSpaceOnUse" class="svga-on-canvas-eyesfront-gradient-right-0">
      <stop id="SvgjsStop9251" stop-opacity="1" stop-color="#ffffff" offset="0"/>
      <stop id="SvgjsStop9252" stop-opacity="1" stop-color="#fdfefe" offset="0.544"/>
      <stop id="SvgjsStop9253" stop-opacity="1" stop-color="#f6f8f9" offset="0.74"/>
      <stop id="SvgjsStop9254" stop-opacity="1" stop-color="#eaeff2" offset="0.879"/>
      <stop id="SvgjsStop9255" stop-opacity="1" stop-color="#d9e3e8" offset="0.992"/>
      <stop id="SvgjsStop9256" stop-opacity="1" stop-color="#d8e2e7" offset="1"/>
    </radialGradient>
    <radialGradient id="SvgjsRadialGradient9260" cx="123.414" cy="83.449" fx="135.857" fy="83.484" r="17.696" gradientTransform="matrix(-0.9998 0.0208 -0.0166 -0.7998 248.1905 147.6261)" gradientUnits="userSpaceOnUse" class="svga-on-canvas-eyesfront-gradient-right-3">
      <stop id="SvgjsStop9261" stop-opacity="1" stop-color="#f0b399" offset="0"/>
      <stop id="SvgjsStop9262" stop-opacity="0.3" stop-color="#f0b399" offset="0.7"/>
      <stop id="SvgjsStop9263" stop-opacity="0" stop-color="#ffd0bc" offset="1"/>
    </radialGradient>
    <radialGradient id="SvgjsRadialGradient9265" cx="122.351" cy="106.061" r="28.568" gradientTransform="matrix(0.8829 -0.4695 0.4131 0.777 -29.4959 81.0923)" gradientUnits="userSpaceOnUse" class="svga-on-canvas-eyesfront-gradient-right-4">
      <stop id="SvgjsStop9266" stop-opacity="0" stop-color="#000000" offset="0.9"/>
      <stop id="SvgjsStop9267" stop-opacity="0.2" stop-color="#000000" offset="1"/>
    </radialGradient>
    <linearGradient id="SvgjsLinearGradient9500" x1="100" y1="171" x2="100" y2="130" gradientUnits="userSpaceOnUse" class="svga-on-canvas-chinshadow-gradient-single-0">
      <stop id="SvgjsStop9501" stop-opacity="0.8" stop-color="#f0b399" offset="0"/>
      <stop id="SvgjsStop9502" stop-opacity="1" stop-color="#d17f5b" offset="0.7"/>
    </linearGradient>
    <radialGradient id="SvgjsRadialGradient9578" cx="-568.659" cy="-521.042" r="59.751" gradientTransform="matrix(0.096 -0.0248 0.0245 0.0961 141.2814 119.9893)" gradientUnits="userSpaceOnUse" class="svga-on-canvas-eyesiris-gradient-left-1">
      <stop id="SvgjsStop9579" stop-opacity="1" stop-color="#ffffff" offset="0"/>
      <stop id="SvgjsStop9580" stop-opacity="0" stop-color="#ffffff" offset="1"/>
    </radialGradient>
    <radialGradient id="SvgjsRadialGradient9582" cx="-582.838" cy="-519.099" r="59.745" gradientTransform="matrix(0.0991 8.856319e-004 -0.0011 0.0991 131.1134 135.9855)" gradientUnits="userSpaceOnUse" class="svga-on-canvas-eyesiris-gradient-left-2">
      <stop id="SvgjsStop9583" stop-opacity="1" stop-color="#ffffff" offset="0"/>
      <stop id="SvgjsStop9584" stop-opacity="0" stop-color="#ffffff" offset="1"/>
    </radialGradient>
    <linearGradient id="SvgjsLinearGradient9588" x1="122.67" y1="88.268" x2="123.606" y2="87.152" gradientTransform="matrix(1 0 0 1 -52 0)" gradientUnits="userSpaceOnUse" class="svga-on-canvas-eyesiris-gradient-left-5">
      <stop id="SvgjsStop9589" stop-opacity="1" stop-color="#ffffff" offset="0"/>
      <stop id="SvgjsStop9590" stop-opacity="0" stop-color="#ffffff" offset="1"/>
    </linearGradient>
    <linearGradient id="SvgjsLinearGradient9592" x1="127.212" y1="82.296" x2="126.463" y2="83.189" gradientTransform="matrix(1 0 0 1 -52 0)" gradientUnits="userSpaceOnUse" class="svga-on-canvas-eyesiris-gradient-left-6">
      <stop id="SvgjsStop9593" stop-opacity="1" stop-color="#ffffff" offset="0"/>
      <stop id="SvgjsStop9594" stop-opacity="0" stop-color="#ffffff" offset="1"/>
    </linearGradient>
    <linearGradient id="SvgjsLinearGradient9596" x1="129.636" y1="79.822" x2="127.91" y2="81.879" gradientTransform="matrix(1 0 0 1 -52 0)" gradientUnits="userSpaceOnUse" class="svga-on-canvas-eyesiris-gradient-left-7">
      <stop id="SvgjsStop9597" stop-opacity="1" stop-color="#ffffff" offset="0"/>
      <stop id="SvgjsStop9598" stop-opacity="0" stop-color="#ffffff" offset="1"/>
    </linearGradient>
    <radialGradient id="SvgjsRadialGradient9601" cx="-568.654" cy="-521.042" r="59.752" gradientTransform="matrix(0.096 -0.0248 0.0245 0.0961 193.2804 119.9894)" gradientUnits="userSpaceOnUse" class="svga-on-canvas-eyesiris-gradient-right-1">
      <stop id="SvgjsStop9602" stop-opacity="1" stop-color="#ffffff" offset="0"/>
      <stop id="SvgjsStop9603" stop-opacity="0" stop-color="#ffffff" offset="1"/>
    </radialGradient>
    <radialGradient id="SvgjsRadialGradient9605" cx="-582.833" cy="-519.102" r="59.747" gradientTransform="matrix(0.0991 8.856319e-004 -0.0011 0.0991 183.1126 135.9856)" gradientUnits="userSpaceOnUse" class="svga-on-canvas-eyesiris-gradient-right-2">
      <stop id="SvgjsStop9606" stop-opacity="1" stop-color="#ffffff" offset="0"/>
      <stop id="SvgjsStop9607" stop-opacity="0" stop-color="#ffffff" offset="1"/>
    </radialGradient>
    <linearGradient id="SvgjsLinearGradient9611" x1="122.67" y1="88.268" x2="123.606" y2="87.152" gradientUnits="userSpaceOnUse" class="svga-on-canvas-eyesiris-gradient-right-5">
      <stop id="SvgjsStop9612" stop-opacity="1" stop-color="#ffffff" offset="0"/>
      <stop id="SvgjsStop9613" stop-opacity="0" stop-color="#ffffff" offset="1"/>
    </linearGradient>
    <linearGradient id="SvgjsLinearGradient9615" x1="127.212" y1="82.296" x2="126.463" y2="83.189" gradientUnits="userSpaceOnUse" class="svga-on-canvas-eyesiris-gradient-right-6">
      <stop id="SvgjsStop9616" stop-opacity="1" stop-color="#ffffff" offset="0"/>
      <stop id="SvgjsStop9617" stop-opacity="0" stop-color="#ffffff" offset="1"/>
    </linearGradient>
    <linearGradient id="SvgjsLinearGradient9619" x1="129.636" y1="79.822" x2="127.91" y2="81.879" gradientUnits="userSpaceOnUse" class="svga-on-canvas-eyesiris-gradient-right-7">
      <stop id="SvgjsStop9620" stop-opacity="1" stop-color="#ffffff" offset="0"/>
      <stop id="SvgjsStop9621" stop-opacity="0" stop-color="#ffffff" offset="1"/>
    </linearGradient>
    <linearGradient id="SvgjsLinearGradient9675" x1="128" y1="106" x2="128" y2="69" gradientUnits="userSpaceOnUse" class="svga-on-canvas-glasses-gradient-single-1">
      <stop id="SvgjsStop9676" stop-opacity="0.95" stop-color="#26120b" offset="0"/>
      <stop id="SvgjsStop9677" stop-opacity="1" stop-color="#26120b" offset="1"/>
    </linearGradient>
    <linearGradient id="SvgjsLinearGradient9679" x1="72" y1="106" x2="72" y2="69" gradientUnits="userSpaceOnUse" class="svga-on-canvas-glasses-gradient-single-2">
      <stop id="SvgjsStop9680" stop-opacity="0.95" stop-color="#26120b" offset="0"/>
      <stop id="SvgjsStop9681" stop-opacity="1" stop-color="#26120b" offset="1"/>
    </linearGradient>
    <linearGradient id="SvgjsLinearGradient9710" x1="100" y1="110" x2="100" y2="73" gradientUnits="userSpaceOnUse" class="svga-on-canvas-glasses-gradient-single-0">
      <stop id="SvgjsStop9711" stop-opacity="0.6" stop-color="#151124" offset="0"/>
      <stop id="SvgjsStop9712" stop-opacity="1" stop-color="#151124" offset="1"/>
    </linearGradient>
  </defs>
  <g id="svga-group-wrapper">
    <g id="svga-group-backs-single"/>
    <g id="svga-group-humanwrap-move" transform="matrix(1,0,0,1,0,0)">
      <g id="svga-group-humanwrap" transform="matrix(1,0,0,1,0,0)">
        <g id="svga-group-hair-back-move" transform="matrix(1,0,0,1,0,0)">
          <g id="svga-group-hair-back" transform="matrix(1,0,0,1,0,0)">
            <path id="SvgjsPath9568" d="M155.728 11.564H44.272C28.491 30.71 21.813 58.319 32.461 90.745c8.949 28.091 13.512 36.882 21.14 58.24 0 0 0.003-4.164-0.1-6.51 3.068 7.797 1.906 5.192 4.189 9.279 0.064-3.704-0.192-7.47-0.55-11.13 2.294 9.156 3.72 11.162 6.37 16.48 0.481-3.005 0.55-5.61 0.55-8.3 0.006 0.022 5.33 16.002 5.33 16.02 0.26 0.771 0.51 1.5 0.73 2.15 0.284-3.106 0.558-7.202 0.773-11.023 0.698 2.131 1.545 4.613 2.445 7.111 0.388 2.607 0.785 5.354 1.151 8.021 0.15-1.35 50.867-1.35 51.018 0 0.366-2.668 0.764-5.415 1.151-8.023 0.9-2.498 1.747-4.979 2.445-7.109 0.216 3.821 0.489 7.917 0.773 11.023 0.221-0.65 0.471-1.38 0.73-2.15 0-0.018 5.324-15.997 5.33-16.02 0 2.689 0.068 5.295 0.55 8.3 2.65-5.318 4.076-7.324 6.37-16.48 -0.357 3.66-0.614 7.426-0.55 11.13 2.283-4.087 1.121-1.482 4.189-9.279 -0.103 2.346-0.1 6.51-0.1 6.51 7.628-21.358 12.19-30.149 21.14-58.24C178.187 58.319 171.509 30.71 155.728 11.564z" fill="#000000" stroke-width="none" opacity="1"/>
            <path id="SvgjsPath9569" d="M155.731 11.562l1.149 5.18c13.415 18.712 18.158 44.437 8.958 73.864 -7.896 26.509-10.606 31.566-18.6 55.41 0.228-8.06-0.251-4.342 3.07-15.99 5.598-19.239 8.217-21.629 8.96-32.09 -1.767 11.506-7.022 17.952-10.37 31.68 -0.112 0.387-1.438 5.071-1.58 5.44 0 0.564-3.993 12.566-4.45 13.58 2.057-30.407 12.97-43.777 18.92-67.34 3.275-14.069 1.713-20.565-0.21-34.17 -0.978-6.889-2.307-14.719-5.38-17.19 3.303 3.303 4.087 11.762 4.66 17.22 0.404 3.898 2.475 15.697 0.93 26.87 -3.525 20.76-15.2 39.243-17.79 57.66 0 0 0.01 0.01 0 0.02 -2.935 11.237-3.169 13.813-7.04 23.021 -0.176-4.356-0.183-7.088 0.031-10.836 5.971-15.562 4.394-10.082 7.99-29.964 -0.22 0.598-3.94 11.747-7.424 22.354 0.236-2.84 0.535-6.295 0.902-10.704 0 0 0 0.01-0.01 0.03 -3.081 20.755-1.168 10.467-6.479 28.02 -1.796-14.726 2.294-35.978 2.71-39.279 -3.055 12.144-4.802 21.952-4.28 33.93 -0.307 0.995-0.52 1.694-0.678 2.22 -0.717-11.735-0.791-13.635-0.795-13.939 -0.376 17.315 0.313 1.76-2.906 25.071 -0.216 0.637-0.442 1.305-0.69 2.038 -0.74-5.766-1.127-13.335-1.421-16.189 -2.111-0.395-4.519-0.51-6.55-0.51 -9.976 0.257-3.828 0.929-17.36 1.256 -13.532-0.327-7.385-0.999-17.361-1.256 -2.031 0-4.438 0.115-6.55 0.51 -0.294 2.854-0.68 10.424-1.42 16.189 -0.249-0.733-0.475-1.401-0.69-2.038 -3.211-23.254-2.532-7.841-2.906-25.071 -0.004 0.305-0.079 2.204-0.795 13.94 -0.158-0.524-0.371-1.225-0.678-2.221 0.521-11.978-1.225-21.786-4.28-33.93 0.416 3.302 4.506 24.554 2.71 39.279 -5.323-17.587-3.395-7.268-6.479-28.02 -0.01-0.021-0.01-0.03-0.01-0.03 0.368 4.41 0.666 7.865 0.902 10.705 -3.483-10.606-7.204-21.757-7.424-22.354 3.596 19.873 2.02 14.401 7.991 29.965 0.214 3.747 0.207 6.479 0.031 10.835 -3.871-9.208-4.105-11.783-7.04-23.021 -0.01-0.01 0-0.02 0-0.02 -2.59-18.417-14.265-36.9-17.79-57.66 -1.545-11.173 0.525-22.972 0.93-26.87 0.573-5.458 1.357-13.917 4.66-17.22 -3.073 2.471-4.402 10.301-5.38 17.19 -1.923 13.605-3.485 20.101-0.21 34.17 5.95 23.563 16.863 36.933 18.92 67.34 -0.457-1.014-4.45-13.016-4.45-13.58 -0.143-0.369-1.468-5.054-1.58-5.44 -3.348-13.728-8.604-20.174-10.37-31.68 0.743 10.461 3.362 12.851 8.96 32.09 3.321 11.648 2.843 7.931 3.07 15.99 -7.993-23.844-10.703-28.901-18.6-55.41 -9.2-29.427-4.457-55.152 8.958-73.864l1.149-5.18C28.488 30.708 21.813 58.32 32.461 90.745c8.949 28.091 13.512 36.882 21.14 58.24 0 0 0.003-4.164-0.1-6.51 3.068 7.797 1.906 5.192 4.189 9.279 0.064-3.704-0.192-7.47-0.55-11.13 2.294 9.156 3.72 11.162 6.37 16.48 0.481-3.005 0.55-5.61 0.55-8.3 0.006 0.022 5.33 16.002 5.33 16.02 0.26 0.771 0.51 1.5 0.73 2.15 0.284-3.106 0.558-7.202 0.773-11.023 2.884 8.8 2.179 4.808 3.597 15.133 0.15-1.35 0.303-2.573 0.458-3.707 0.02 0.052 0.041 0.105 0.061 0.157 2.231-14.414 2.258-12.435 3.011-18.76 19.125 1.023 24.679 1.032 43.959 0 0.757 6.367 0.762 4.21 3.011 18.76 0.021-0.052 0.041-0.105 0.061-0.158 0.155 1.134 0.308 2.358 0.458 3.708 1.419-10.337 0.714-6.334 3.597-15.133 0.216 3.821 0.489 7.917 0.773 11.023 0.221-0.65 0.471-1.38 0.73-2.15 0-0.018 5.324-15.997 5.33-16.02 0 2.689 0.068 5.295 0.55 8.3 2.65-5.318 4.076-7.324 6.37-16.48 -0.357 3.66-0.614 7.426-0.55 11.13 2.283-4.087 1.121-1.482 4.189-9.279 -0.103 2.346-0.1 6.51-0.1 6.51 7.628-21.358 12.19-30.149 21.14-58.24C178.187 58.32 171.512 30.708 155.731 11.562zM69.491 163.165c-1.323-5.24-2.458-8.576-3.365-11.2 1.074 2.769 1.867 4.804 2.233 5.771 0.499-2.595 0.93-5.54 1.05-6.54 0.171 0.597 0.405 1.37 0.686 2.266C69.925 156.226 69.726 159.425 69.491 163.165zM71.052 153.015c0.061-1.21 0.115-2.355 0.159-3.379 0.122 0.597 0.601 3.492 1.213 7.415C71.652 154.783 71.276 153.685 71.052 153.015zM77.631 148.405c-0.097 0.384-0.678 3.295-1.321 6.632 0.183-2.979 0.253-5.581 0.209-7.292 1.364-0.173 5.699-0.332 12.026 0.629C85.419 148.395 81.815 148.405 77.631 148.405zM122.369 148.405c-4.185 0-7.789-0.011-10.915-0.031 5.565-0.845 10.097-0.874 12.026-0.629 -0.044 1.711 0.026 4.312 0.21 7.29C123.047 151.698 122.466 148.788 122.369 148.405zM127.576 157.051c0.611-3.924 1.091-6.818 1.213-7.415 0.044 1.023 0.098 2.168 0.159 3.379C128.724 153.684 128.348 154.783 127.576 157.051zM130.509 163.165c-0.234-3.74-0.434-6.939-0.604-9.704 0.28-0.896 0.515-1.669 0.686-2.266 0.119 1 0.551 3.945 1.05 6.54 0.366-0.967 1.159-3.004 2.234-5.776C132.968 154.584 131.833 157.921 130.509 163.165z" fill="#000000" stroke-width="none" opacity="1"/>
          </g>
        </g>
        <g id="svga-group-humanbody-single">
          <path id="SvgjsPath7638" d="M195.417 199.778c-2.196-4.746-8.195-11.779-14.86-13.722 -8.239-2.403-26.837-5.308-33.733-6.923 -5.528-1.296-16.662-11.294-20.564-14.65 -0.7-0.6-1.273-1.839-1.287-2.76 -0.139-10.864 4.195-39.724 4.195-39.724H100 70.833c0 0 4.334 28.859 4.193 39.724 -0.011 0.921-0.587 2.16-1.285 2.76 -3.902 3.356-15.036 13.354-20.564 14.65 -6.897 1.615-25.495 4.619-33.733 7.022 -6.667 1.942-12.664 8.876-14.86 13.622 -3.708 8.008-4.584 22.5-4.584 35h100 100C200 222.278 199.123 207.786 195.417 199.778z" fill="#ffd0bc" stroke-width="none" opacity="1" stroke="none"/>
          <path id="SvgjsPath7639" d="M159.156 184.058c24.342 3.542 34.586 8.708 37.794 50.721H200c0-12.5-0.877-26.992-4.583-35 -2.196-4.746-8.195-11.779-14.86-13.722 -8.239-2.403-26.837-5.308-33.733-6.923 -5.528-1.296-18.242-12.069-21.643-16.35 3.36 4.704 12.791 15.605 21.054 18.46C150.188 182.61 153.48 183.232 159.156 184.058zM53.766 181.244c8.263-2.854 17.693-13.756 21.054-18.46 -3.4 4.28-16.114 15.054-21.643 16.35 -6.896 1.615-25.494 4.619-33.733 7.022 -6.665 1.942-12.664 8.876-14.86 13.622 -3.706 8.008-4.583 22.5-4.583 35h3.05c3.188-41.744 13.475-47.183 37.794-50.721C46.52 183.232 49.813 182.61 53.766 181.244z" fill="#ffe2d6" stroke-width="none" opacity="1" stroke="none"/>
          <path id="SvgjsPath7640" d="M95.646 197.62c0 0-5.074-1.609-7.083-2.379 -10.449-4.009-44.395-6.607-44.395-6.607s35.754 1.419 43.644 2.779c-0.458-4.767-3.017-20.004-3.017-20.004s5.149 16.815 6.409 21.057C91.878 194.734 95.646 197.62 95.646 197.62zM106.445 196.278c-0.089 0.073-0.191 0.168-0.302 0.268C106.256 196.461 106.358 196.372 106.445 196.278zM95.646 197.62c0 0 2.893 2.992 4.347 3.03 1.91 0.051 4.828-2.899 6.151-4.104 -1.265 0.957-4.159 1.391-5.31 1.436C99.504 198.033 95.646 197.62 95.646 197.62zM116.664 190.101c-1.545 0.248-4.386 0.789-4.386 0.789l2.287-14.89c-0.646 3.071-4.474 16.211-8.12 20.278 1.91-1.616 6.158-2.391 8.324-2.704 10.236-1.484 10.232-1.483 41.062-4.94C155.831 188.634 126.76 188.479 116.664 190.101z" fill="#f0b399" stroke-width="none" opacity="1" stroke="none"/>
          <path id="SvgjsPath7641" d="M195.417 199.778c-2.196-4.746-8.195-11.779-14.86-13.722 -8.239-2.403-26.837-5.308-33.733-6.923 -5.528-1.296-16.662-11.294-20.564-14.65 -0.7-0.6-1.273-1.839-1.287-2.76 -0.139-10.864 4.195-39.724 4.195-39.724H100 70.833c0 0 4.334 28.859 4.193 39.724 -0.011 0.921-0.587 2.16-1.285 2.76 -3.902 3.356-15.036 13.354-20.564 14.65 -6.897 1.615-25.495 4.619-33.733 7.022 -6.667 1.942-12.664 8.876-14.86 13.622 -3.708 8.008-4.584 22.5-4.584 35h100 100C200 222.278 199.123 207.786 195.417 199.778z" fill="none" stroke="#d17f5b" stroke-width="1.5" opacity="1"/>
        </g>
        <g id="svga-group-chinshadow-single">
          <path id="SvgjsPath9499" d="M75.602 162.779c7.126 5.302 15.497 9.087 24.401 9.087 8.902 0 17.269-3.781 24.394-9.08 -0.104-0.358-0.17-0.718-0.175-1.053 -0.088-6.862 1.561-20.607 2.82-30.025 -15.654-1.97-38.431-1.97-54.084 0 1.26 9.419 2.908 23.163 2.819 30.024C75.773 162.063 75.707 162.42 75.602 162.779z" fill="url(#SvgjsLinearGradient9500)" opacity="1"/>
        </g>
        <g id="svga-group-clothes-single">
          <path id="SvgjsPath9457" d="M128.857 237.978H70.72v-56.183c22.25 4.699 36.88 4.337 58.138 0V237.978z" fill="#f3f1f3" stroke-width="none" opacity="1"/>
          <path id="SvgjsPath9458" d="M107.44 237.709c-2.775 0-10.727 0.208-16.512-0.23l-0.01-0.171c-0.818-18.658 1.129-30.719 4.537-39.288l0.048-0.123 -0.093-0.093c-0.905-0.904-2.425-1.935-4.034-3.025 -1.611-1.093-3.275-2.221-4.336-3.246 0.625-0.732 1.395-1.454 2.348-2.201 0.245-0.125 1.162-0.843 5.974-4.971 0.214-0.184 0.345-0.296 0.362-0.31 0.818-0.178 2.138-0.293 3.738-0.293 2.183 0 4.731 0.221 6.512 0.563 1.561 1.458 3.451 5.329 4.158 7.17 -0.976 2.291-2.128 3.129-3.717 4.284 -0.774 0.563-1.652 1.201-2.652 2.112l-0.083 0.075 0.021 0.111c4.026 20.31 4.027 25.054 4.027 29.642 0.001 2.021 0.001 6.609 0.339 9.985C107.917 237.707 107.704 237.709 107.44 237.709z" fill="#131111" stroke-width="none" opacity="1"/>
          <path id="SvgjsPath9459" d="M110.35 191.495c-0.754-1.995-2.71-5.93-4.28-7.359 -2.876-0.563-7.983-0.843-10.47-0.24 -0.108 0.088-6.248 5.383-6.31 5.26 -0.906 0.708-1.788 1.504-2.52 2.39 2.061 2.076 6.655 4.556 8.5 6.4 -3.65 9.18-5.33 21.59-4.55 39.38 0.01 0.11 0.01 0.23 0.02 0.34 6.756 0.52 16.55 0.331 17.55 0.223 -1.16-11.307 1.438-10.455-4.39-39.853C106.968 195.241 108.865 195.04 110.35 191.495zM105.1 210.535c-0.021-0.05-0.04-0.1-0.051-0.13 2 10.55 1.38 18.632 2.891 26.972 -4.736-0.318-12.014-0.052-16.771-0.052 0.369-7.198 1.188-31.684 4.74-39.74 0.17-0.046 0.339-0.084 0.509-0.125l-1.032 34.736 2.747-35.066c0.02-0.002 0.04-0.005 0.06-0.008l1.801 32.605 0.417-32.734c0.026 0.001 0.051-0.001 0.077 0l4.199 36.355 -2.3-36.137c0.314 0.063 0.629 0.141 0.942 0.233 0.03 0 0.07 0.01 0.1 0.03C103.533 198.476 104.365 205.876 105.1 210.535zM104.219 196.726c-2.774-1.251-6.363-1.026-9.129 0.24 -1.681-1.813-4.08-3.077-7.53-5.391 0.55-0.479 1.26-1.07 2.21-1.81 0.08 0 3.48-2.771 3.54-2.83 0.92-0.84 1.74-1.79 2.52-2.62 2.93-0.12 7.23 0.02 9.82 0.14 1.5 1.876 2.931 4.696 4.01 6.94C107.699 194.266 105.759 195.545 104.219 196.726z" fill="#000000" stroke-width="none" opacity="1"/>
          <path id="SvgjsPath9460" d="M78.196 213.077c-11.534-40.071-6.325-29.581-9.399-45.32 2.028-4.813 3.958-10.44 5.042-11.598l0.08-0.086c2.292 24.007 8.958 13.636 23.784 27.722C89.228 189.449 81.372 204.127 78.196 213.077zM131.193 167.758c-1.448-3.702-4.077-9.127-5.215-10.331 1.424 20.678-15.146 16.551-24.35 26.2 8.812 5.713 17.173 20.66 20.172 29.455C134.92 169.568 127.85 188.673 131.193 167.758z" fill="#f3f1f4" stroke-width="none" opacity="1"/>
          <path id="SvgjsPath9461" d="M125.801 156.967c0 5.137-0.42 9.162-1.262 10.339 -2.443 5.809-13.103 9.853-16.39 11.51 -2.495 1.227-4.942 2.809-6.83 4.85 3.813 2.476 5.705 3.383 12.93 14.44 4.246 7.109 6.539 12.448 7.561 15.64 13.378-44.331 6.222-24.978 9.59-46.01C129.814 163.65 126.801 157.885 125.801 156.967zM129.449 176.495c-1.957 18.078-3.491 14.485-7.74 34.181 -2.716-8.644-11.075-22.913-19.43-27.091 3.937-2.957 5.031-3.131 9.729-5.279 14.396-6.42 14.985-12.385 14.138-20.271 1.207 1.423 3.125 6.161 4.692 9.521C129.979 170.702 129.589 175.194 129.449 176.495zM79.199 171.896c-4.408-3.649-3.16-8.162-5.189-16.215 -0.902 1-3.146 6.632-5.42 12.055 0.557 2.796 0.681 7.389 0.76 8.84 0.559 12.202 1.75 12.765 8.83 37.16 3.031-8.905 11.558-24.37 20.24-30.009C91.489 177.401 82.765 174.999 79.199 171.896zM84.659 197.405c-2.221 3.666-4.517 7.48-6.37 13.28 -4.442-20.269-5.999-16.964-7.73-34.16 -0.32-2.971-0.617-6.027-1.4-8.96 1.638-3.588 3.981-10.281 4.731-10.995 1.366 7.078 0.066 13.462 5.669 16.995 2.621 1.996 11.104 5.32 17.52 10.36C93.188 186.235 91.094 187.596 84.659 197.405z" fill="#cfc8d7" stroke-width="none" opacity="1"/>
          <path id="SvgjsPath9462" d="M120.319 209.824l-1.209-2.654c0 0 9.148-28.175 10.743-36.225C130.765 179.299 120.319 209.824 120.319 209.824zM78.879 208.721l1.436-3.259c0 0-8.573-26.467-10.168-34.517C69.235 179.299 78.879 208.721 78.879 208.721z" fill="#e1e0e1" stroke-width="none" opacity="1"/>
          <path id="SvgjsPath9463" d="M124.787 195.605c7.065-20.834 2.756-22.551 6.305-29.469 0.134-0.261 1.396 1.046 1.533 1.64 1.306 5.658 53.349 17.338 54.994 18.598 1.456 1.058 5.65 3.137 5.65 3.137 4.937 9.07 7.762 10.698 9.15 34.984 0.13 3.083-0.061 11.801-0.061 14.141l-85.559-0.676C117.004 230.169 117.999 216.15 124.787 195.605zM75.213 195.605c-7.065-20.834-2.756-22.551-6.305-29.469 -0.134-0.261-1.396 1.046-1.533 1.64 -1.306 5.658-53.349 17.338-54.994 18.598 -1.456 1.058-5.65 3.137-5.65 3.137 -4.937 9.07-7.762 10.698-9.15 34.984 -0.13 3.083 0.061 11.801 0.061 14.141l85.559-0.676C82.996 230.169 82.001 216.15 75.213 195.605z" fill="#386e77" stroke-width="none" opacity="1"/>
          <path id="SvgjsPath9464" d="M130.307 190c-4.552 16.387-10.771 31.116-13.506 47.96 -0.89-0.007 1.491-22.695 7.986-42.354 7.065-20.834 2.756-22.551 6.305-29.469 0.077-0.15-0.619 1.976-0.223 2.432C130.723 176.296 132.625 182.272 130.307 190zM69.693 190c4.552 16.387 10.771 31.116 13.506 47.96 0.89-0.007-1.491-22.695-7.986-42.354 -7.065-20.834-2.756-22.551-6.305-29.469 -0.077-0.15 0.619 1.976 0.223 2.432C69.277 176.296 67.375 182.272 69.693 190z" fill="#265e68" stroke-width="none" opacity="1"/>
          <path id="SvgjsPath9465" d="M152.436 186.031c0 0-2.284 2.561-8.636 6.923 5.313-5.885 7.761-8.249 7.761-8.249L152.436 186.031zM154.611 197.906l-1.528-1.367c-4.538 13.781-7.571 20.587-12.828 36.618C147.799 218.831 149.599 213.745 154.611 197.906zM48.439 184.705c0 0 2.447 2.364 7.761 8.249 -6.352-4.362-8.636-6.923-8.636-6.923L48.439 184.705zM59.745 233.157c-5.257-16.031-8.29-22.837-12.828-36.618l-1.528 1.367C50.401 213.745 52.201 218.831 59.745 233.157z" fill="#184f58" stroke-width="none" opacity="1"/>
          <path id="SvgjsPath9466" d="M179.409 219.335c0-11.596 3.11-18.351 9.615-28.142 0.608 0.372 0.931 0.543 1.345 0.875C183.452 200.651 182.078 208.659 179.409 219.335zM141.312 230.703c6.113-16.703 8.06-23.228 12.107-34.388 -1.15-0.351-8.671-2.985-9.819-3.346 0.41 1 3.113 1.822 7.822 4.709C151.422 197.679 146.333 213.082 141.312 230.703zM149.533 184.577c0 0-3.352 4.14-6.664 8.328 3.388-2.67 5.748-5.644 8.691-8.2 -3.994-3.368-10.511-8.524-14.721-12.089C140.163 176.188 149.533 184.577 149.533 184.577zM202.073 238.634l0.286 0.002c0-2.34 0.19-11.058 0.061-14.141 -1.389-24.286-4.214-25.914-9.15-34.984 0 0-4.194-2.079-5.65-3.137 -1.334-1.021-38.794-9.922-52.49-15.88 16.011 10.971 46.282 15.027 55.24 21.574C194.702 195.235 200.535 222.337 202.073 238.634zM9.613 192.037c0.542-0.383 0.619-0.366 1.168-0.729 6.505 9.791 9.809 16.431 9.809 28.026C17.922 208.659 16.08 200.318 9.613 192.037zM48.578 197.679c4.709-2.887 7.412-3.709 7.822-4.709 -1.148 0.36-8.669 2.995-9.819 3.346 4.048 11.16 5.994 17.685 12.107 34.388C53.667 213.082 48.578 197.679 48.578 197.679zM63.16 172.616c-4.21 3.564-10.727 8.721-14.721 12.089 2.943 2.557 5.304 5.53 8.691 8.2 -3.313-4.188-6.664-8.328-6.664-8.328S59.837 176.188 63.16 172.616zM9.631 192.068c8.958-6.547 39.229-10.604 55.24-21.574 -13.696 5.958-51.156 14.858-52.49 15.88 -1.456 1.058-5.65 3.137-5.65 3.137 -4.937 9.07-7.762 10.698-9.15 34.984 -0.13 3.083 0.061 11.801 0.061 14.141l0.286-0.002C-0.535 222.337 5.298 195.235 9.631 192.068z" fill="#4d7e86" stroke-width="none" opacity="1"/>
          <path id="SvgjsPath9467" d="M132.246 166.374c-0.049-0.293-0.443-0.634-0.738-0.657 -0.296-0.023-0.432 0.458-0.567 0.722 -3.549 6.918 0.414 8.333-6.651 29.167 -6.788 20.545-7.584 34.862-7.787 42.653l85.857 0.377c0-2.34 0.489-11.058 0.359-14.141 -1.389-24.286-4.313-26.113-9.25-35.184 0 0-4.394-2.179-5.85-3.236 -4.889-3.742-0.59 0.023-22.03-6 -17.576-5.135-18.525-6.577-24.899-8.35 -1.288-0.369-4.057-0.822-6.95-2.851C133.475 168.689 132.341 166.944 132.246 166.374zM116.974 237.31c3.729-23.564 6.085-29.73 11.296-47.274 3.522-11.104 1.576-17.408 3.254-22.54 0.088-0.268 0.467-0.282 0.571-0.017 2.434 6.214 9.238 7.656 18.834 17.047 -5.813 5.813-7.309 7.38-8.06 8.38 0.864 0.438 5.582 2.229 9.9 3.9 -0.245 0.767-13.415 38.02-13.57 38.52 10-21.578 11.292-28.211 14.22-39.01 -0.812-0.612-7.892-3.212-9.09-3.64 4.274-4.424 5.51-5.396 7.53-7.971 1.622 0-15.874-13.318-16.73-14.211 0.462 0.364 2.752 1.391 3.01 1.491 14.682 5.166 3.065 2.829 35.2 12.001 3.072 0.781 7.355 1.567 10.53 1.879 0.218 0.02 5.395 2.727 8.35 3.97 -7.189 7.475-11.797 17.133-12.81 29.5 3.219-12.666 4.951-19.29 13.14-28.819 7.62 15.422 6.755 13.195 9.23 47.71C181.167 237.413 149.559 237.227 116.974 237.31zM66.261 168.875c-2.894 2.028-5.662 2.481-6.95 2.851 -6.374 1.772-7.323 3.215-24.899 8.35 -21.44 6.023-17.142 2.258-22.03 6 -1.456 1.058-5.85 3.236-5.85 3.236 -4.937 9.07-7.861 10.897-9.25 35.184 -0.13 3.083 0.359 11.801 0.359 14.141l85.857-0.377c-0.203-7.791-0.999-22.108-7.787-42.653 -7.065-20.834-3.103-22.249-6.651-29.167 -0.136-0.264-0.271-0.745-0.567-0.722 -0.295 0.023-0.689 0.364-0.738 0.657C67.659 166.944 66.525 168.689 66.261 168.875zM-1.779 238.226c2.476-34.515 1.61-32.288 9.23-47.71 8.188 9.529 9.921 16.153 13.14 28.819 -1.013-12.367-5.62-22.025-12.81-29.5 2.955-1.243 8.132-3.95 8.35-3.97 3.175-0.312 7.458-1.098 10.53-1.879 32.135-9.172 20.519-6.835 35.2-12.001 0.258-0.101 2.548-1.127 3.01-1.491 -0.856 0.893-18.353 14.211-16.73 14.211 2.021 2.575 3.256 3.547 7.53 7.971 -1.198 0.428-8.278 3.027-9.09 3.64 2.928 10.799 4.22 17.432 14.22 39.01 -0.155-0.5-13.325-37.753-13.57-38.52 4.318-1.672 9.036-3.463 9.9-3.9 -0.751-1-2.247-2.567-8.06-8.38 9.596-9.391 16.4-10.833 18.834-17.047 0.104-0.266 0.483-0.251 0.571 0.017 1.678 5.132-0.269 11.436 3.254 22.54 5.211 17.544 7.567 23.71 11.296 47.274C50.441 237.227 18.833 237.413-1.779 238.226z" fill="#0c4049" stroke-width="none" opacity="1"/>
        </g>
        <g id="svga-group-head" transform="matrix(1,0,0,1,0,0)">
          <g id="svga-group-ears-left-move" transform="matrix(1,0,0,1,0,0)">
            <g id="svga-group-ears-left" transform="matrix(1,0,0,1,0,0)">
              <path id="SvgjsPath7903" d="M47.001 83.231c-1.376-2.453-5.638-8.48-9.98-7.003 -2.749 0.935-3.293 3.993-3.735 6.693 -0.588 3.591 0.471 10.694 1.389 13.26 0.881 2.467 3.533 7.23 5.264 9.045 2.13 2.225 4.775 9.324 5.194 10.061 0.66 1.162 1.536 2.911 4.122 2.692 2.853-0.244 4.584-1.85 5.856-2.121C58.253 115.192 50.582 89.616 47.001 83.231z" fill="#ffd0bc" stroke="#d17f5b" stroke-width="1.5" opacity="1"/>
              <path id="SvgjsPath7904" d="M44.197 98.104c-0.132-0.581 0.007-1.56 0.142-2.504 0.124-0.861 0.24-1.675 0.169-2.251 -0.267-2.154-1.773-6.249-2.757-8.467 -1.132-2.554-2.963-5.77-5.262-6.599 -0.95-0.343-1.575 0.067-1.938 0.484 -0.266 0.305-0.325 0.665-0.238 0.707 0.086 0.042 0.285-0.254 0.572-0.535 0.235-0.229 0.579-0.426 1.051-0.385 -0.19 1.073-1.167 6.883-0.744 10.845 0.333 3.115 1.593 5.442 1.79 5.791 0.029 0.367 0.077 0.726 0.148 1.075 0.929 4.547 4.971 9.717 6.378 11.409 0.259 0.313 0.531 0.497 0.598 0.423 0.066-0.076-0.094-0.387-0.353-0.7 -1.388-1.679-5.391-6.831-6.289-11.218 -0.952-4.656 2.318-11.556 3.048-13.017 0.371 0.685 0.687 1.344 0.93 1.893 0.19 0.431 0.402 0.936 0.619 1.479 -0.429 0.762-3.434 6.32-2.338 10.767 0.406 1.641 2.235 3.755 3.447 4.333 0.667 0.32 0.919 0.797 1.209 1.349 0.336 0.64 0.718 1.365 1.828 1.892 0.225 0.108 0.429 0.151 0.61 0.151 0.313 0 0.551-0.135 0.725-0.293 0.018 0.28 0.017 0.64 0.009 0.97 -0.012 0.431 0.042 0.783 0.137 0.791 0.094 0.008 0.196-0.332 0.207-0.76 0.016-0.526 0.013-1.177-0.072-1.488 -0.248-0.917-1.008-1.953-1.813-3.048C45.221 100.116 44.403 99.003 44.197 98.104zM36.95 94.073c-2.177-7.139 0.656-13.3 1.144-14.28 0.85 0.822 1.6 1.919 2.21 2.995C39.86 83.646 37.041 89.271 36.95 94.073zM46.341 104.515c-1.004-0.475-1.339-1.115-1.666-1.733 -0.293-0.559-0.598-1.136-1.369-1.505 -0.168-0.081-0.352-0.203-0.542-0.343 -2.486-6.263 0.272-9.001 0.963-9.562 0.211 0.766 0.369 1.468 0.439 2.031 0.063 0.517-0.052 1.339-0.167 2.134 -0.142 0.985-0.286 2.004-0.137 2.664 0.226 0.982 1.069 2.131 1.884 3.242 0.723 0.986 1.466 2.003 1.721 2.832C47.359 104.439 47.017 104.836 46.341 104.515z" fill="#d17f5b" stroke-width="none" opacity="1" stroke="none"/>
            </g>
          </g>
          <g id="svga-group-ears-right-move" transform="matrix(1,0,0,1,0,0)">
            <g id="svga-group-ears-right" transform="matrix(1,0,0,1,0,0)">
              <path id="SvgjsPath7905" d="M152.736 83.231c1.377-2.453 5.639-8.48 9.98-7.003 2.75 0.935 3.293 3.993 3.736 6.693 0.588 3.591-0.471 10.694-1.389 13.26 -0.881 2.467-3.533 7.23-5.266 9.045 -2.129 2.225-4.775 9.324-5.193 10.061 -0.658 1.162-1.535 2.911-4.121 2.692 -2.854-0.244-4.584-1.85-5.857-2.121C141.484 115.192 149.156 89.616 152.736 83.231z" fill="#ffd0bc" stroke="#d17f5b" stroke-width="1.5" opacity="1"/>
              <path id="SvgjsPath7906" d="M153.727 101.196c-0.805 1.096-1.564 2.131-1.813 3.048 -0.086 0.311-0.088 0.962-0.072 1.488 0.012 0.428 0.113 0.768 0.207 0.76s0.148-0.36 0.137-0.791c-0.008-0.331-0.008-0.69 0.01-0.97 0.174 0.158 0.412 0.293 0.725 0.293 0.182 0 0.385-0.043 0.609-0.151 1.109-0.526 1.492-1.252 1.828-1.892 0.289-0.552 0.543-1.028 1.209-1.349 1.213-0.578 3.041-2.692 3.447-4.333 1.096-4.447-1.908-10.005-2.338-10.767 0.217-0.544 0.43-1.049 0.619-1.479 0.244-0.549 0.559-1.208 0.93-1.893 0.73 1.46 4 8.361 3.049 13.017 -0.896 4.387-4.9 9.539-6.289 11.218 -0.258 0.313-0.418 0.624-0.352 0.7 0.066 0.074 0.338-0.109 0.598-0.423 1.406-1.692 5.449-6.862 6.379-11.409 0.07-0.35 0.117-0.708 0.146-1.075 0.197-0.349 1.459-2.676 1.791-5.791 0.422-3.961-0.555-9.772-0.744-10.845 0.473-0.042 0.814 0.156 1.051 0.385 0.287 0.281 0.486 0.577 0.572 0.535 0.086-0.042 0.027-0.402-0.238-0.707 -0.363-0.417-0.988-0.827-1.938-0.484 -2.299 0.83-4.131 4.045-5.262 6.599 -0.984 2.218-2.49 6.313-2.758 8.467 -0.072 0.576 0.045 1.39 0.17 2.251 0.135 0.945 0.273 1.924 0.141 2.504C155.336 99.003 154.518 100.116 153.727 101.196zM159.434 82.787c0.611-1.075 1.361-2.173 2.211-2.995 0.488 0.98 3.32 7.141 1.145 14.28C162.697 89.271 159.879 83.646 159.434 82.787zM152.27 104.275c0.254-0.829 0.998-1.846 1.721-2.832 0.816-1.111 1.658-2.26 1.885-3.242 0.148-0.66 0.004-1.679-0.137-2.664 -0.115-0.795-0.23-1.617-0.166-2.134 0.068-0.563 0.227-1.266 0.438-2.031 0.691 0.561 3.449 3.299 0.965 9.562 -0.191 0.14-0.375 0.263-0.543 0.343 -0.771 0.369-1.074 0.946-1.369 1.505 -0.326 0.618-0.662 1.258-1.666 1.733C152.721 104.836 152.379 104.439 152.27 104.275z" fill="#d17f5b" stroke-width="none" opacity="1" stroke="none"/>
            </g>
          </g>
          <g id="svga-group-faceshape-wrap" transform="matrix(1,0,0,1,0,0)">
            <g id="svga-group-faceshape-single">
              <path id="SvgjsPath9496" d="M100.002 0.867C66.381 0.813 39.186 28.343 39.134 62.366c-0.008 5.403 0.669 10.645 1.953 15.641l0.004 0c0.011 0.054 8.713 39.241 14.519 51.175 6.073 12.487 23.814 32.685 44.392 32.685 20.582 0 38.32-20.197 44.392-32.685 5.805-11.935 14.507-51.122 14.519-51.175l0.005 0c1.283-4.997 1.961-10.238 1.952-15.641C160.819 28.343 133.623 0.813 100.002 0.867z" fill="#ffd0bc" stroke-width="none" opacity="1"/>
              <path id="SvgjsPath9497" d="M120.754 4.512c21.441 9.489 36.411 31.135 36.45 56.363 0.008 5.403-0.669 10.645-1.953 15.641l-0.005 0c-0.011 0.054-8.713 39.24-14.519 51.177 -5.709 11.738-21.608 32.469-40.725 32.469s-35.016-20.73-40.725-32.469c-5.806-11.937-14.507-51.123-14.519-51.177l-0.004 0c-1.284-4.997-1.962-10.238-1.953-15.641 0.038-25.229 15.008-46.874 36.45-56.363 -23.386 8.55-40.076 31.208-40.117 57.854 -0.008 5.403 0.669 10.645 1.953 15.641l0.004 0c0.011 0.054 8.713 39.241 14.519 51.175 6.073 12.487 23.814 32.685 44.392 32.685 20.579 0 38.319-20.197 44.392-32.685 5.805-11.935 14.507-51.122 14.519-51.175l0.005 0c1.283-4.997 1.961-10.238 1.952-15.641C160.83 35.72 144.14 13.062 120.754 4.512z" fill="#f7c1aa" stroke-width="none" opacity="1"/>
              <path id="SvgjsPath9498" d="M100.002 0.867C66.381 0.813 39.186 28.343 39.134 62.366c-0.008 5.403 0.669 10.645 1.953 15.641l0.004 0c0.011 0.054 8.713 39.241 14.519 51.175 6.073 12.487 23.814 32.685 44.392 32.685 20.582 0 38.32-20.197 44.392-32.685 5.805-11.935 14.507-51.122 14.519-51.175l0.005 0c1.283-4.997 1.961-10.238 1.952-15.641C160.819 28.343 133.623 0.813 100.002 0.867z" fill="none" stroke="#d17f5b" stroke-width="1.5" opacity="1"/>
            </g>
          </g>
          <g id="svga-group-mouth-single-move" transform="matrix(1,0,0,1,0,0)">
            <g id="svga-group-mouth-single" transform="matrix(1,0,0,1,0,0)">
              <path id="SvgjsPath7892" d="M100.182 141c-5.713 0.011-6.89-2.654-6.89-2.654 5.5 0.355 8.269 0.352 13.77-0.023C107.062 138.322 105.202 140.99 100.182 141z" fill="url(#SvgjsLinearGradient7893)" opacity="1"/>
              <path id="SvgjsPath7896" d="M84.557 134.475c3.326-0.44 6.44-2.644 11.501-3.439 2.373-0.373 2.949 0.4 4.054 0.414 1.184 0.015 2.717-0.69 4.031-0.512 6.125 0.831 5.396 2.467 11.315 3.352 -3.168 1.46-4.501 5.455-15.556 5.446C89.159 139.727 87.1 135.601 84.557 134.475z" fill="#39557e" stroke-width="none" opacity="1" stroke="none"/>
              <path id="SvgjsPath7897" d="M91.318 135.048c0.446-0.532 5.698-1.207 8.911-1.206 3.404 0.001 8.715 0.481 9.01 1.19C104.432 135.155 95.022 135.133 91.318 135.048z" fill="#ffffff" stroke-width="none" opacity="1"/>
              <path id="SvgjsPath7898" d="M115.252 134.173c-1.96 0.192-3.961 0.548-5.968 0.681 -1.058-0.726-6.033-1.156-9.083-1.152 -2.683 0.003-6.974 0.512-8.549 1.05 -0.276 0.07-0.514 0.153-0.664 0.241 -3.775-0.211-6.196-0.68-6.259-0.686 -0.266-0.026-0.483 0.081-0.48 0.239 0.004 0.146 0.226 0.106 0.472 0.145 0.018 0.003 0.068 0.01 0.051 0.007 10.096 1.27 20.364 1.202 30.432-0.13 0.264-0.035 0.521 0.001 0.525-0.158C115.733 134.251 115.517 134.146 115.252 134.173zM99.987 135.159c-2.683-0.001-5.252-0.088-7.143-0.148 0.041-0.115 0.062-0.175 0.102-0.29 1.82-0.395 4.965-0.732 7.282-0.735 2.312-0.003 5.359 0.218 7.201 0.59 0.062 0.171 0.094 0.256 0.155 0.426C105.521 135.069 102.864 135.16 99.987 135.159z" fill="#0c2850" stroke-width="none" opacity="1" stroke="none"/>
              <path id="SvgjsPath7899" d="M99.798 138.56c-3.813-0.007-8.469-0.729-11.573-2.26 7.157 0.231 15.488 0.269 22.638-0.005C107.589 137.975 103.873 138.573 99.798 138.56zM100.153 132.96c3.904-0.006 7.402 0.312 10.986 0.965 -1.783-0.779-3.208-1.623-5.388-1.969 -0.978-0.154-1.549-0.346-2.513-0.166 -0.973 0.182-2.557 0.313-3.323 0.275 -1.978-0.096-2.997-0.313-4.496-0.19 -2.489 0.204-3.257 1.008-5.215 1.847C93.877 133.444 96.308 132.966 100.153 132.96z" fill="#435e86" stroke-width="none" opacity="1" stroke="none"/>
              <path id="SvgjsPath7900" d="M93.404 136.958c2.576-0.154 11.612-0.211 13.539-0.091C103.598 138.01 98.311 138.664 93.404 136.958z" fill="#4e688d" stroke-width="none" opacity="1" stroke="none"/>
            </g>
          </g>
          <g id="svga-group-eyes-left-move" transform="matrix(1,0,0,1,0,0)">
            <g id="svga-group-eyes-left" transform="matrix(1,0,0,1,0,0)">
              <g id="svga-group-eyesback-left">
                <path id="SvgjsPath9212" d="M60.505 80.842c0.241 2.336 0.667 11.497 13.706 11.489 5.836-0.005 13.361-3.612 13.211-8.063 0 0-6.704-7.009-14-7.009S60.504 80.831 60.505 80.842z" fill="url(#SvgjsRadialGradient9213)" opacity="1"/>
              </g>
              <g id="svga-group-eyesiriswrapper-left" transform="matrix(1,0,0,1,0.5,0.75)">
                <g id="svga-group-eyesiriscontrol-left" transform="matrix(1,0,0,1,0,0)">
                  <g id="svga-group-eyesiris-left" transform="matrix(1,0,0,1,0,0)">
                    <path id="SvgjsPath9576" d="M80 84c0 3.313-2.687 6-6 6 -3.313 0-6-2.687-6-6l0 0c0-3.314 2.687-6 6-6C77.313 77.999 80 80.686 80 84L80 84z" fill="#724f7c" stroke-width="none" opacity="1"/>
                    <path id="SvgjsPath9577" d="M73.328 78.066c-0.023 0.003-0.047 0.006-0.071 0.009 0.029 0.135 0.057 0.271 0.085 0.406C73.336 78.344 73.333 78.204 73.328 78.066zM73.341 78.48c0.07 1.972 0.185 3.729 0.517 4.364C74.033 82.148 73.735 80.414 73.341 78.48zM73.859 82.845c-0.043 0.167-0.108 0.281-0.208 0.319 -0.1 0.038-0.226-0.006-0.368-0.103 0.041 0.167 0.037 0.297-0.036 0.378 -0.072 0.081-0.201 0.101-0.373 0.078 0.113 0.13 0.171 0.249 0.146 0.353 -0.027 0.104-0.134 0.182-0.293 0.242 0.159 0.063 0.266 0.141 0.291 0.245 0.025 0.104-0.033 0.223-0.145 0.352 0.17-0.021 0.301 0.001 0.371 0.082 0.071 0.081 0.075 0.212 0.035 0.379 0.141-0.097 0.265-0.139 0.365-0.1 0.101 0.038 0.166 0.152 0.206 0.32 0.081-0.152 0.171-0.249 0.28-0.26 0.104-0.014 0.216 0.059 0.329 0.188 0.001-0.172 0.037-0.299 0.127-0.36 0.088-0.061 0.219-0.049 0.379 0.013 -0.078-0.152-0.105-0.281-0.055-0.377 0.05-0.095 0.173-0.146 0.344-0.166 -0.141-0.099-0.227-0.2-0.225-0.308 0-0.108 0.084-0.209 0.227-0.306 -0.17-0.021-0.291-0.072-0.342-0.167 -0.049-0.095-0.022-0.225 0.058-0.377 -0.162 0.06-0.292 0.072-0.38 0.011 -0.089-0.061-0.125-0.188-0.125-0.36 -0.112 0.128-0.224 0.199-0.33 0.185C74.029 83.092 73.938 82.998 73.859 82.845zM74.466 82.92c0.479-0.535 1.021-2.209 1.57-4.104C75.182 80.593 74.467 82.202 74.466 82.92zM76.035 78.816c0.06-0.122 0.121-0.246 0.178-0.37 -0.021-0.007-0.042-0.017-0.063-0.026C76.112 78.553 76.074 78.686 76.035 78.816zM74.972 83.27c0.672-0.252 1.931-1.483 3.297-2.905C76.688 81.541 75.306 82.634 74.972 83.27zM78.269 80.365c0.1-0.075 0.203-0.15 0.305-0.225 -0.014-0.018-0.03-0.033-0.042-0.049C78.445 80.181 78.358 80.274 78.269 80.365zM75.254 83.814c0.713 0.088 2.4-0.417 4.272-1.041C77.578 83.081 75.848 83.406 75.254 83.814zM79.526 82.774c0.11-0.016 0.225-0.034 0.337-0.052 -0.004-0.019-0.009-0.038-0.014-0.057C79.742 82.701 79.632 82.738 79.526 82.774zM75.253 84.427c0.59 0.412 2.318 0.747 4.262 1.063C77.65 84.857 75.967 84.342 75.253 84.427zM79.516 85.49c0.095 0.033 0.191 0.067 0.285 0.098 0.005-0.017 0.009-0.033 0.012-0.05C79.716 85.523 79.615 85.507 79.516 85.49zM74.965 84.97c0.333 0.637 1.708 1.738 3.282 2.924C76.888 86.464 75.638 85.226 74.965 84.97zM78.248 87.892c0.059 0.062 0.12 0.126 0.179 0.189 0.01-0.012 0.019-0.021 0.03-0.032C78.387 87.997 78.315 87.944 78.248 87.892zM74.46 85.317c-0.003 0.719 0.703 2.331 1.547 4.113C75.468 87.533 74.937 85.855 74.46 85.317zM76.007 89.431c0.021 0.075 0.043 0.152 0.063 0.229 0.015-0.006 0.025-0.01 0.039-0.014C76.076 89.574 76.041 89.5 76.007 89.431zM73.851 85.389c-0.336 0.637-0.461 2.39-0.542 4.361C73.713 87.82 74.022 86.087 73.851 85.389zM73.309 89.75c-0.017 0.075-0.031 0.151-0.047 0.228 0.014 0.003 0.025 0.003 0.039 0.005C73.303 89.906 73.307 89.826 73.309 89.75zM73.28 85.169c-0.596 0.407-1.521 1.904-2.508 3.61C72.026 87.259 73.106 85.867 73.28 85.169zM70.772 88.779c-0.053 0.063-0.108 0.13-0.162 0.193 0.013 0.008 0.024 0.014 0.038 0.024C70.688 88.924 70.731 88.851 70.772 88.779zM72.875 84.71c-0.716 0.083-2.231 0.978-3.898 2.029C70.795 85.977 72.395 85.248 72.875 84.71zM68.976 86.741c-0.086 0.036-0.174 0.072-0.263 0.11 0.006 0.013 0.015 0.027 0.023 0.04C68.817 86.842 68.897 86.791 68.976 86.741zM72.728 84.113c-0.671-0.257-2.429-0.168-4.395-0.011C70.297 84.27 72.055 84.367 72.728 84.113zM68.333 84.102c-0.107-0.01-0.217-0.02-0.323-0.029 0 0.019-0.002 0.038 0 0.056C68.119 84.119 68.228 84.11 68.333 84.102zM72.875 83.519c-0.473-0.539-2.069-1.277-3.881-2.051C70.653 82.528 72.163 83.432 72.875 83.519zM68.994 81.468c-0.104-0.067-0.209-0.134-0.315-0.201 -0.009 0.019-0.019 0.038-0.029 0.055C68.766 81.371 68.882 81.419 68.994 81.468zM73.284 83.061c-0.169-0.698-1.241-2.094-2.485-3.623C71.775 81.15 72.692 82.651 73.284 83.061zM70.799 79.438c-0.067-0.115-0.132-0.232-0.199-0.349 -0.019 0.013-0.039 0.026-0.056 0.039C70.628 79.231 70.716 79.335 70.799 79.438z" fill="url(#SvgjsRadialGradient9578)" opacity="0.7"/>
                    <path id="SvgjsPath9581" d="M74.886 78.086c-0.024-0.003-0.047-0.007-0.07-0.01 -0.007 0.138-0.016 0.277-0.024 0.414C74.822 78.356 74.855 78.22 74.886 78.086zM74.791 78.489c-0.442 1.922-0.787 3.649-0.629 4.35C74.511 82.211 74.671 80.459 74.791 78.489zM74.161 82.839c-0.084 0.15-0.176 0.243-0.283 0.254 -0.106 0.01-0.216-0.064-0.327-0.195 -0.004 0.171-0.042 0.297-0.133 0.356 -0.09 0.059-0.221 0.045-0.38-0.021 0.076 0.155 0.101 0.285 0.049 0.378 -0.053 0.094-0.176 0.142-0.345 0.158 0.137 0.101 0.22 0.204 0.217 0.312 -0.002 0.107-0.089 0.207-0.231 0.302 0.169 0.024 0.29 0.079 0.337 0.174 0.048 0.096 0.018 0.225-0.064 0.375 0.161-0.057 0.292-0.065 0.379-0.002 0.087 0.063 0.12 0.19 0.116 0.363 0.117-0.125 0.229-0.196 0.337-0.179 0.105 0.014 0.194 0.113 0.27 0.268 0.045-0.167 0.113-0.279 0.216-0.315 0.101-0.036 0.225 0.01 0.363 0.111 -0.036-0.167-0.029-0.299 0.044-0.378 0.073-0.079 0.205-0.096 0.376-0.072 -0.111-0.132-0.168-0.251-0.138-0.355 0.028-0.104 0.136-0.18 0.299-0.237 -0.16-0.064-0.263-0.145-0.288-0.25 -0.023-0.105 0.037-0.223 0.154-0.349 -0.172 0.016-0.301-0.006-0.37-0.088 -0.07-0.082-0.072-0.214-0.028-0.379 -0.142 0.094-0.268 0.134-0.367 0.093C74.261 83.122 74.199 83.007 74.161 82.839zM74.729 83.07c0.601-0.394 1.557-1.871 2.578-3.558C76.022 81.007 74.916 82.375 74.729 83.07zM77.307 79.511c0.089-0.102 0.18-0.206 0.268-0.311 -0.019-0.013-0.036-0.028-0.055-0.042C77.449 79.277 77.378 79.396 77.307 79.511zM75.127 83.538c0.715-0.07 2.25-0.934 3.937-1.953C77.231 82.312 75.614 83.01 75.127 83.538zM79.063 81.584c0.117-0.046 0.235-0.092 0.354-0.138 -0.01-0.021-0.021-0.04-0.028-0.059C79.281 81.453 79.173 81.52 79.063 81.584zM75.259 84.137c0.666 0.27 2.426 0.218 4.395 0.101C77.693 84.03 75.938 83.896 75.259 84.137zM79.654 84.237c0.112 0.013 0.226 0.025 0.339 0.037 0-0.02 0.001-0.039 0.002-0.058C79.881 84.223 79.766 84.23 79.654 84.237zM75.1 84.729c0.462 0.551 2.046 1.321 3.842 2.129C77.303 85.763 75.811 84.831 75.1 84.729zM78.941 86.858c0.083 0.057 0.167 0.114 0.25 0.168 0.009-0.015 0.017-0.03 0.025-0.045C79.126 86.942 79.032 86.9 78.941 86.858zM74.68 85.179c0.156 0.701 1.2 2.12 2.414 3.674C76.151 87.119 75.264 85.599 74.68 85.179zM77.094 88.85c0.042 0.075 0.083 0.153 0.125 0.229 0.012-0.009 0.024-0.016 0.037-0.024C77.202 88.987 77.147 88.917 77.094 88.85zM74.103 85.383c-0.188 0.693 0.076 2.433 0.43 4.373C74.502 87.784 74.424 86.026 74.103 85.383zM74.532 89.756c0.001 0.078 0.003 0.158 0.003 0.238 0.014-0.002 0.027-0.004 0.041-0.004C74.562 89.913 74.547 89.833 74.532 89.756zM73.496 85.294c-0.49 0.528-1.064 2.189-1.652 4.072C72.733 87.607 73.481 86.013 73.496 85.294zM71.843 89.366c-0.035 0.068-0.07 0.138-0.104 0.208 0.012 0.006 0.023 0.009 0.036 0.015C71.797 89.516 71.821 89.439 71.843 89.366zM73 84.934c-0.68 0.239-1.962 1.446-3.357 2.838C71.25 86.628 72.652 85.563 73 84.934zM69.644 87.772c-0.067 0.047-0.137 0.098-0.205 0.145 0.01 0.011 0.02 0.02 0.029 0.032C69.525 87.89 69.585 87.832 69.644 87.772zM72.728 84.385c-0.713-0.104-2.407 0.368-4.291 0.952C70.392 85.071 72.125 84.781 72.728 84.385zM68.437 85.339c-0.092 0.013-0.187 0.024-0.283 0.039 0.003 0.015 0.008 0.03 0.013 0.044C68.258 85.396 68.348 85.366 68.437 85.339zM72.741 83.772c-0.582-0.423-2.303-0.792-4.242-1.149C70.353 83.294 72.025 83.843 72.741 83.772zM68.499 82.623c-0.101-0.037-0.205-0.075-0.305-0.112 -0.005 0.019-0.011 0.037-0.015 0.054C68.288 82.584 68.395 82.604 68.499 82.623zM73.038 83.235c-0.318-0.643-1.668-1.769-3.219-2.986C71.147 81.704 72.372 82.968 73.038 83.235zM69.818 80.25c-0.083-0.091-0.167-0.183-0.251-0.275 -0.014 0.016-0.029 0.031-0.042 0.046C69.624 80.097 69.723 80.173 69.818 80.25zM73.551 82.899c0.017-0.718-0.656-2.344-1.464-4.142C72.587 80.663 73.085 82.35 73.551 82.899zM72.087 78.757c-0.034-0.128-0.067-0.259-0.101-0.389 -0.021 0.007-0.043 0.015-0.063 0.023C71.977 78.513 72.033 78.636 72.087 78.757z" fill="url(#SvgjsRadialGradient9582)" opacity="0.4"/>
                    <path id="SvgjsPath9585" d="M76.354 84c0 1.3-1.053 2.353-2.353 2.353 -1.299 0-2.354-1.053-2.354-2.353 0-1.299 1.055-2.354 2.354-2.354C75.301 81.646 76.354 82.7 76.354 84z" fill="#724f7c" stroke-width="none" opacity="1"/>
                    <path id="SvgjsPath9586" d="M76.354 84c0 1.3-1.053 2.353-2.353 2.353 -1.299 0-2.354-1.053-2.354-2.353 0-1.299 1.055-2.354 2.354-2.354C75.301 81.646 76.354 82.7 76.354 84z" fill="#000000" stroke-width="none" opacity="0.9"/>
                    <path id="SvgjsPath9587" d="M70.717 86.748c0.449-0.302 1.059-0.18 1.36 0.268 0.301 0.449 0.182 1.059-0.268 1.36 -0.45 0.303-1.059 0.183-1.36-0.267C70.148 87.66 70.268 87.049 70.717 86.748L70.717 86.748z" fill="url(#SvgjsLinearGradient9588)" opacity="0.5"/>
                    <path id="SvgjsPath9591" d="M75.86 83.672c-0.251 0.374-0.969 0.331-1.606-0.096 -0.638-0.427-0.95-1.078-0.7-1.451l0-0.001c0.25-0.374 0.969-0.331 1.605 0.097C75.798 82.647 76.11 83.297 75.86 83.672 75.86 83.672 75.86 83.672 75.86 83.672z" fill="url(#SvgjsLinearGradient9592)" opacity="0.5"/>
                    <path id="SvgjsPath9595" d="M78.716 82.673c-0.568 0.873-2.036 0.925-3.275 0.117 -1.24-0.808-1.784-2.17-1.215-3.043 0.568-0.872 2.036-0.924 3.275-0.117C78.74 80.439 79.284 81.802 78.716 82.673L78.716 82.673z" fill="url(#SvgjsLinearGradient9596)" opacity="0.75"/>
                  </g>
                </g>
              </g>
              <g id="svga-group-eyesfront-left">
                <path id="SvgjsPath9237" d="M55.199 83.999c0 13.807 8.507 25 19 25s19-11.193 19-25 -8.507-25-19-25S55.199 70.192 55.199 83.999zM60.505 80.842c-0.001-0.011 5.621-3.583 12.917-3.583s14 7.009 14 7.009c0.15 4.45-7.375 8.058-13.211 8.063C61.172 92.339 60.746 83.179 60.505 80.842z" fill="#ffd0bc" stroke-width="none" opacity="1"/>
                <path id="SvgjsPath9238" d="M58.098 84.073c-0.078 7.733 8.894 13.964 18.553 13.926 9.657-0.044 17.473-6.342 17.446-14.077C94.072 76.191 86.23 69.959 76.57 70 66.909 70.043 58.202 73.495 58.098 84.073zM60.505 80.842c-0.001-0.011 5.621-3.583 12.917-3.583s14 7.009 14 7.009c0.15 4.45-7.375 8.058-13.211 8.063C61.172 92.339 60.746 83.179 60.505 80.842z" fill="url(#SvgjsRadialGradient9239)" opacity="1"/>
                <path id="SvgjsPath9243" d="M60.505 80.842c0.241 2.336 0.667 11.497 13.706 11.489 5.836-0.005 13.361-3.612 13.211-8.063 0 0-6.704-7.009-14-7.009S60.504 80.831 60.505 80.842z" fill="url(#SvgjsRadialGradient9244)" opacity="1"/>
                <path id="SvgjsPath9247" d="M88.143 81.99c-0.995-1.708-5.02-5.623-10.804-6.99C84.38 76.245 86.134 78.672 88.143 81.99z" fill="#d17f5b" stroke-width="none" opacity="1"/>
                <path id="SvgjsPath9248" d="M60.707 81.467c0.099 1.422 1.79 5.64 2.534 6.819 -2.275-1.08-2.705-4.186-7.099-8.199 14.067-7.027 24.748-5.142 32 5.061C78.764 76.573 71.396 75.496 60.707 81.467zM83.776 89.792c0 0-6.42 2.373-9.923 2.41 -3.503 0.039-8.483-1.906-8.483-1.906s4.851 2.565 8.483 2.57C77.487 92.872 83.776 89.792 83.776 89.792z" fill="#2a150e" stroke-width="none" opacity="1"/>
              </g>
            </g>
          </g>
          <g id="svga-group-eyes-right-move" transform="matrix(1,0,0,1,0,0)">
            <g id="svga-group-eyes-right" transform="matrix(1,0,0,1,0,0)">
              <g id="svga-group-eyesback-right">
                <path id="SvgjsPath9220" d="M139.097 80.842c-0.241 2.336-0.667 11.497-13.706 11.489 -5.836-0.005-13.361-3.612-13.211-8.063 0 0 6.704-7.009 14-7.009S139.098 80.831 139.097 80.842z" fill="url(#SvgjsRadialGradient9221)" opacity="1"/>
              </g>
              <g id="svga-group-eyesiriswrapper-right" transform="matrix(1,0,0,1,-0.5,0.75)">
                <g id="svga-group-eyesiriscontrol-right" transform="matrix(1,0,0,1,0,0)">
                  <g id="svga-group-eyesiris-right" transform="matrix(1,0,0,1,0,0)">
                    <path id="SvgjsPath9599" d="M132 84c0 3.313-2.687 6-5.999 6 -3.313 0-6.001-2.687-6.001-6l0 0c0-3.314 2.688-6 6.001-6C129.313 77.999 132 80.686 132 84L132 84z" fill="#724f7c" stroke-width="none" opacity="1"/>
                    <path id="SvgjsPath9600" d="M125.328 78.066c-0.023 0.003-0.047 0.006-0.071 0.009 0.029 0.135 0.058 0.271 0.085 0.406C125.336 78.344 125.333 78.204 125.328 78.066zM125.341 78.48c0.069 1.972 0.185 3.729 0.518 4.364C126.033 82.148 125.735 80.414 125.341 78.48zM125.858 82.845c-0.042 0.167-0.108 0.281-0.207 0.319 -0.101 0.038-0.226-0.006-0.367-0.103 0.04 0.167 0.036 0.297-0.036 0.378 -0.072 0.081-0.201 0.101-0.372 0.078 0.112 0.13 0.171 0.249 0.146 0.353 -0.028 0.104-0.134 0.182-0.293 0.242 0.158 0.063 0.265 0.141 0.29 0.245 0.025 0.104-0.032 0.223-0.145 0.352 0.17-0.021 0.3 0.001 0.37 0.082 0.071 0.081 0.075 0.212 0.035 0.379 0.141-0.097 0.266-0.139 0.365-0.1 0.102 0.038 0.166 0.152 0.206 0.32 0.08-0.152 0.172-0.249 0.279-0.26 0.105-0.014 0.217 0.059 0.329 0.188 0.002-0.172 0.037-0.299 0.128-0.36 0.087-0.061 0.219-0.049 0.379 0.013 -0.078-0.152-0.104-0.281-0.056-0.377 0.051-0.095 0.174-0.146 0.345-0.166 -0.141-0.099-0.228-0.2-0.225-0.308 -0.001-0.108 0.084-0.209 0.227-0.306 -0.171-0.021-0.291-0.072-0.342-0.167 -0.05-0.095-0.022-0.225 0.057-0.377 -0.161 0.06-0.291 0.072-0.38 0.011s-0.124-0.188-0.125-0.36c-0.111 0.128-0.224 0.199-0.33 0.185C126.029 83.092 125.938 82.998 125.858 82.845zM126.466 82.92c0.479-0.535 1.021-2.209 1.569-4.104C127.182 80.593 126.468 82.202 126.466 82.92zM128.035 78.816c0.06-0.122 0.121-0.246 0.179-0.37 -0.021-0.007-0.042-0.017-0.063-0.026C128.112 78.553 128.074 78.686 128.035 78.816zM126.972 83.27c0.673-0.252 1.932-1.483 3.298-2.905C128.688 81.541 127.307 82.634 126.972 83.27zM130.27 80.365c0.1-0.075 0.202-0.15 0.305-0.225 -0.015-0.018-0.03-0.033-0.042-0.049C130.445 80.181 130.358 80.274 130.27 80.365zM127.255 83.814c0.713 0.088 2.399-0.417 4.271-1.041C129.578 83.081 127.848 83.406 127.255 83.814zM131.526 82.774c0.11-0.016 0.225-0.034 0.337-0.052 -0.005-0.019-0.009-0.038-0.014-0.057C131.742 82.701 131.632 82.738 131.526 82.774zM127.253 84.427c0.591 0.412 2.318 0.747 4.263 1.063C129.65 84.857 127.967 84.342 127.253 84.427zM131.516 85.49c0.095 0.033 0.19 0.067 0.285 0.098 0.005-0.017 0.009-0.033 0.013-0.05C131.716 85.523 131.614 85.507 131.516 85.49zM126.965 84.97c0.332 0.637 1.708 1.738 3.282 2.924C128.889 86.464 127.638 85.226 126.965 84.97zM130.248 87.892c0.059 0.062 0.119 0.126 0.178 0.189 0.01-0.012 0.02-0.021 0.031-0.032C130.387 87.997 130.315 87.944 130.248 87.892zM126.461 85.317c-0.003 0.719 0.702 2.331 1.547 4.113C127.468 87.533 126.937 85.855 126.461 85.317zM128.008 89.431c0.021 0.075 0.043 0.152 0.063 0.229 0.015-0.006 0.026-0.01 0.039-0.014C128.076 89.574 128.041 89.5 128.008 89.431zM125.851 85.389c-0.336 0.637-0.461 2.39-0.542 4.361C125.713 87.82 126.022 86.087 125.851 85.389zM125.309 89.75c-0.017 0.075-0.031 0.151-0.047 0.228 0.014 0.003 0.024 0.003 0.039 0.005C125.303 89.906 125.307 89.826 125.309 89.75zM125.279 85.169c-0.596 0.407-1.521 1.904-2.508 3.61C124.026 87.259 125.105 85.867 125.279 85.169zM122.771 88.779c-0.052 0.063-0.107 0.13-0.161 0.193 0.013 0.008 0.024 0.014 0.037 0.024C122.688 88.924 122.731 88.851 122.771 88.779zM124.874 84.71c-0.716 0.083-2.23 0.978-3.897 2.029C122.795 85.977 124.395 85.248 124.874 84.71zM120.977 86.741c-0.087 0.036-0.175 0.072-0.263 0.11 0.006 0.013 0.014 0.027 0.023 0.04C120.817 86.842 120.897 86.791 120.977 86.741zM124.729 84.113c-0.672-0.257-2.43-0.168-4.396-0.011C122.298 84.27 124.055 84.367 124.729 84.113zM120.333 84.102c-0.106-0.01-0.217-0.02-0.322-0.029 -0.001 0.019-0.003 0.038-0.001 0.056C120.119 84.119 120.228 84.11 120.333 84.102zM124.876 83.519c-0.474-0.539-2.069-1.277-3.882-2.051C122.653 82.528 124.163 83.432 124.876 83.519zM120.994 81.468c-0.104-0.067-0.21-0.134-0.315-0.201 -0.009 0.019-0.019 0.038-0.028 0.055C120.766 81.371 120.883 81.419 120.994 81.468zM125.284 83.061c-0.169-0.698-1.241-2.094-2.485-3.623C123.775 81.15 124.692 82.651 125.284 83.061zM122.799 79.438c-0.067-0.115-0.133-0.232-0.198-0.349 -0.019 0.013-0.039 0.026-0.057 0.039C122.629 79.231 122.716 79.335 122.799 79.438z" fill="url(#SvgjsRadialGradient9601)" opacity="0.7"/>
                    <path id="SvgjsPath9604" d="M126.886 78.086c-0.024-0.003-0.047-0.007-0.07-0.01 -0.008 0.138-0.016 0.277-0.024 0.414C126.821 78.356 126.854 78.22 126.886 78.086zM126.791 78.489c-0.443 1.922-0.787 3.649-0.63 4.35C126.511 82.211 126.671 80.459 126.791 78.489zM126.161 82.839c-0.084 0.15-0.177 0.243-0.283 0.254 -0.106 0.01-0.216-0.064-0.327-0.195 -0.004 0.171-0.042 0.297-0.133 0.356 -0.09 0.059-0.221 0.045-0.38-0.021 0.075 0.155 0.101 0.285 0.049 0.378 -0.054 0.094-0.176 0.142-0.346 0.158 0.138 0.101 0.22 0.204 0.217 0.312 -0.002 0.107-0.089 0.207-0.23 0.302 0.17 0.024 0.289 0.079 0.337 0.174 0.048 0.096 0.018 0.225-0.064 0.375 0.162-0.057 0.293-0.065 0.38-0.002 0.087 0.063 0.12 0.19 0.115 0.363 0.117-0.125 0.229-0.196 0.337-0.179 0.105 0.014 0.194 0.113 0.27 0.268 0.046-0.167 0.113-0.279 0.216-0.315 0.101-0.036 0.226 0.01 0.363 0.111 -0.035-0.167-0.028-0.299 0.045-0.378 0.072-0.079 0.204-0.096 0.375-0.072 -0.11-0.132-0.168-0.251-0.138-0.355 0.027-0.104 0.136-0.18 0.299-0.237 -0.159-0.064-0.263-0.145-0.288-0.25 -0.022-0.105 0.038-0.223 0.154-0.349 -0.172 0.016-0.302-0.006-0.37-0.088 -0.07-0.082-0.072-0.214-0.027-0.379 -0.143 0.094-0.269 0.134-0.368 0.093C126.262 83.122 126.198 83.007 126.161 82.839zM126.729 83.07c0.601-0.394 1.557-1.871 2.578-3.558C128.022 81.007 126.916 82.375 126.729 83.07zM129.307 79.511c0.089-0.102 0.18-0.206 0.269-0.311 -0.02-0.013-0.037-0.028-0.056-0.042C129.449 79.277 129.378 79.396 129.307 79.511zM127.127 83.538c0.715-0.07 2.249-0.934 3.937-1.953C129.231 82.312 127.614 83.01 127.127 83.538zM131.063 81.584c0.116-0.046 0.234-0.092 0.354-0.138 -0.01-0.021-0.021-0.04-0.028-0.059C131.281 81.453 131.173 81.52 131.063 81.584zM127.259 84.137c0.666 0.27 2.426 0.218 4.396 0.101C129.692 84.03 127.938 83.896 127.259 84.137zM131.654 84.237c0.111 0.013 0.226 0.025 0.339 0.037 0.001-0.02 0.001-0.039 0.002-0.058C131.882 84.223 131.766 84.23 131.654 84.237zM127.1 84.729c0.463 0.551 2.046 1.321 3.842 2.129C129.303 85.763 127.811 84.831 127.1 84.729zM130.941 86.858c0.082 0.057 0.167 0.114 0.25 0.168 0.009-0.015 0.018-0.03 0.024-0.045C131.126 86.942 131.032 86.9 130.941 86.858zM126.681 85.179c0.155 0.701 1.199 2.12 2.413 3.674C128.151 87.119 127.265 85.599 126.681 85.179zM129.095 88.85c0.041 0.075 0.082 0.153 0.124 0.229 0.012-0.009 0.023-0.016 0.037-0.024C129.202 88.987 129.146 88.917 129.095 88.85zM126.103 85.383c-0.188 0.693 0.076 2.433 0.43 4.373C126.502 87.784 126.424 86.026 126.103 85.383zM126.532 89.756c0.001 0.078 0.003 0.158 0.003 0.238 0.015-0.002 0.026-0.004 0.04-0.004C126.562 89.913 126.547 89.833 126.532 89.756zM125.495 85.294c-0.489 0.528-1.064 2.189-1.652 4.072C124.733 87.607 125.48 86.013 125.495 85.294zM123.843 89.366c-0.035 0.068-0.069 0.138-0.104 0.208 0.012 0.006 0.022 0.009 0.035 0.015C123.797 89.516 123.821 89.439 123.843 89.366zM125 84.934c-0.68 0.239-1.961 1.446-3.356 2.838C123.25 86.628 124.652 85.563 125 84.934zM121.644 87.772c-0.067 0.047-0.138 0.098-0.205 0.145 0.01 0.011 0.02 0.02 0.029 0.032C121.525 87.89 121.586 87.832 121.644 87.772zM124.728 84.385c-0.713-0.104-2.406 0.368-4.29 0.952C122.392 85.071 124.126 84.781 124.728 84.385zM120.438 85.339c-0.093 0.013-0.188 0.024-0.283 0.039 0.004 0.015 0.008 0.03 0.013 0.044C120.258 85.396 120.348 85.366 120.438 85.339zM124.741 83.772c-0.582-0.423-2.303-0.792-4.242-1.149C122.353 83.294 124.025 83.843 124.741 83.772zM120.499 82.623c-0.101-0.037-0.205-0.075-0.305-0.112 -0.006 0.019-0.011 0.037-0.015 0.054C120.287 82.584 120.395 82.604 120.499 82.623zM125.038 83.235c-0.318-0.643-1.669-1.769-3.22-2.986C123.147 81.704 124.372 82.968 125.038 83.235zM121.818 80.25c-0.083-0.091-0.167-0.183-0.251-0.275 -0.015 0.016-0.028 0.031-0.043 0.046C121.623 80.097 121.724 80.173 121.818 80.25zM125.551 82.899c0.017-0.718-0.656-2.344-1.464-4.142C124.588 80.663 125.085 82.35 125.551 82.899zM124.087 78.757c-0.034-0.128-0.067-0.259-0.102-0.389 -0.021 0.007-0.043 0.015-0.063 0.023C123.977 78.513 124.033 78.636 124.087 78.757z" fill="url(#SvgjsRadialGradient9605)" opacity="0.4"/>
                    <path id="SvgjsPath9608" d="M128.354 84c0 1.3-1.054 2.353-2.353 2.353 -1.3 0-2.354-1.053-2.354-2.353 0-1.299 1.055-2.354 2.354-2.354C127.302 81.646 128.354 82.7 128.354 84z" fill="#724f7c" stroke-width="none" opacity="1"/>
                    <path id="SvgjsPath9609" d="M128.354 84c0 1.3-1.054 2.353-2.353 2.353 -1.3 0-2.354-1.053-2.354-2.353 0-1.299 1.055-2.354 2.354-2.354C127.302 81.646 128.354 82.7 128.354 84z" fill="#000000" stroke-width="none" opacity="0.9"/>
                    <path id="SvgjsPath9610" d="M122.718 86.748c0.448-0.302 1.059-0.18 1.359 0.268 0.302 0.449 0.183 1.059-0.268 1.36 -0.45 0.303-1.059 0.183-1.359-0.267C122.148 87.66 122.268 87.049 122.718 86.748L122.718 86.748z" fill="url(#SvgjsLinearGradient9611)" opacity="0.5"/>
                    <path id="SvgjsPath9614" d="M127.859 83.672c-0.251 0.374-0.969 0.331-1.605-0.096 -0.638-0.427-0.95-1.078-0.7-1.451l0.001-0.001c0.25-0.374 0.969-0.331 1.605 0.097C127.798 82.647 128.11 83.297 127.859 83.672 127.859 83.672 127.859 83.672 127.859 83.672z" fill="url(#SvgjsLinearGradient9615)" opacity="0.5"/>
                    <path id="SvgjsPath9618" d="M130.717 82.673c-0.569 0.873-2.036 0.925-3.276 0.117 -1.239-0.808-1.784-2.17-1.215-3.043 0.568-0.872 2.035-0.924 3.275-0.117C130.74 80.439 131.284 81.802 130.717 82.673L130.717 82.673z" fill="url(#SvgjsLinearGradient9619)" opacity="0.75"/>
                  </g>
                </g>
              </g>
              <g id="svga-group-eyesfront-right">
                <path id="SvgjsPath9258" d="M125.402 58.999c-10.493 0-19 11.193-19 25s8.507 25 19 25 19-11.193 19-25S135.896 58.999 125.402 58.999zM125.391 92.331c-5.836-0.005-13.361-3.612-13.211-8.063 0 0 6.704-7.009 14-7.009s12.918 3.572 12.917 3.583C138.855 83.179 138.43 92.339 125.391 92.331z" fill="#ffd0bc" stroke-width="none" opacity="1"/>
                <path id="SvgjsPath9259" d="M123.031 70c-9.66-0.041-17.502 6.192-17.526 13.922 -0.026 7.735 7.789 14.033 17.446 14.077 9.659 0.038 18.631-6.193 18.553-13.926C141.399 73.495 132.692 70.043 123.031 70zM125.391 92.331c-5.836-0.005-13.361-3.612-13.211-8.063 0 0 6.704-7.009 14-7.009s12.918 3.572 12.917 3.583C138.855 83.179 138.43 92.339 125.391 92.331z" fill="url(#SvgjsRadialGradient9260)" opacity="1"/>
                <path id="SvgjsPath9264" d="M139.097 80.842c-0.241 2.336-0.667 11.497-13.706 11.489 -5.836-0.005-13.361-3.612-13.211-8.063 0 0 6.704-7.009 14-7.009S139.098 80.831 139.097 80.842z" fill="url(#SvgjsRadialGradient9265)" opacity="1"/>
                <path id="SvgjsPath9268" d="M111.459 81.99c0.995-1.708 5.02-5.623 10.804-6.99C115.222 76.245 113.468 78.672 111.459 81.99z" fill="#d17f5b" stroke-width="none" opacity="1"/>
                <path id="SvgjsPath9269" d="M111.459 85.148c7.252-10.203 17.933-12.088 32-5.061 -4.394 4.013-4.823 7.119-7.099 8.199 0.744-1.179 2.436-5.397 2.534-6.819C128.205 75.496 120.838 76.573 111.459 85.148zM125.748 92.866c3.633-0.005 8.483-2.57 8.483-2.57s-4.98 1.944-8.483 1.906c-3.503-0.038-9.923-2.41-9.923-2.41S122.114 92.872 125.748 92.866z" fill="#2a150e" stroke-width="none" opacity="1"/>
              </g>
            </g>
          </g>
          <g id="svga-group-facehighlight-single">
            <path id="SvgjsPath7630" d="M141 113.974c0.035 22.622-18.292 40.994-40.938 41.025 -22.642 0.037-41.028-18.273-41.063-40.9 -0.035-22.62 18.292-41.064 40.937-41.1C122.579 72.964 140.967 91.349 141 113.974z" fill="url(#SvgjsRadialGradient7631)" opacity="1"/>
            <path id="SvgjsPath7634" d="M137.5 53.999c0 20.711-16.789 37.5-37.499 37.5 -20.711 0-37.501-16.789-37.501-37.5s16.79-37.5 37.501-37.5C120.711 16.499 137.5 33.288 137.5 53.999z" fill="url(#SvgjsRadialGradient7635)" opacity="1"/>
          </g>
          <g id="svga-group-eyebrows-left-move" transform="matrix(1,0,0,1,0,0)">
            <g id="svga-group-eyebrows-left-rotate" transform="matrix(0.9999999999999999,1.7453292699975975e-9,-1.7453292699975975e-9,0.9999999999999999,1.2400606408391468e-7,-1.2683044303685165e-7)">
              <g id="svga-group-eyebrows-left" transform="matrix(1,0,0,1,0,0)">
                <path id="SvgjsPath9643" d="M90.857 74.446c-12.948-4.229-18.875-4.225-33.252-2.519 -0.434 0.051-2.459 0.548-2.637 0.221 11.896-2.694 21.942-3.566 33.164 0.925C88.531 73.233 90.911 74.118 90.857 74.446z" fill="#fef6e1" stroke-width="none" opacity="1"/>
              </g>
            </g>
          </g>
          <g id="svga-group-eyebrows-right-move" transform="matrix(1,0,0,1,0,0)">
            <g id="svga-group-eyebrows-right-rotate" transform="matrix(1,1.7453291867308707e-9,-1.7453291867308707e-9,1,1.2400604987305996e-7,-2.222353856495829e-7)">
              <g id="svga-group-eyebrows-right" transform="matrix(1,0,0,1,0,0)">
                <path id="SvgjsPath9644" d="M108.978 74.414c9.882-6.264 21.947-6.458 33.14-3.238 0.444 0.128 2.899 0.624 2.915 1.026C120.586 66.812 108.978 74.414 108.978 74.414z" fill="#fef6e1" stroke-width="none" opacity="1"/>
              </g>
            </g>
          </g>
          <g id="svga-group-nose-single-move" transform="matrix(1,0,0,1,0,0)">
            <g id="svga-group-nose-single" transform="matrix(1,0,0,1,0,0)">
              <path id="SvgjsPath7901" d="M99.979 120.982c-2.599-0.079-7.224-2.758-6.672-5.166 0.511-2.238 3.422 0.816 6.766 0.844 3.343 0.027 7.336-1.967 7.806 0.277C108.636 120.561 104.166 121.112 99.979 120.982z" fill="#f7c1aa" stroke-width="none" opacity="1" stroke="none"/>
              <path id="SvgjsPath7902" d="M105.793 119.62c0.21 0.275 0.572 0.275 0.797-0.002 0.231-0.277 0.243-0.727 0.027-1.001 -1.568-2.021-4.39 0.688-4.177 0.969C102.519 119.691 104.608 118.113 105.793 119.62zM94.106 114.477c0.329 2.148 1.012 5.016 6.507 6.519 -5.417-0.161-8.937-1.169-8.908-6.206 0.015-2.549 2.678-7.79 2.678-7.79S93.758 112.207 94.106 114.477z" fill="#d17f5b" stroke-width="none" opacity="1" stroke="none"/>
            </g>
          </g>
          <g id="svga-group-beardwrap" transform="matrix(1,0,0,1,0,0)">
            <g id="svga-group-beard-single-move" transform="matrix(1,0,0,1,0,0)">
              <g id="svga-group-beard-single" transform="matrix(1,0,0,1,0,0)">
                <path id="SvgjsPath7648" d="M100,18.13L100,18.13L100,18.13L100,18.13z" fill="#2a232b" stroke-width="none" opacity="1"/>
              </g>
            </g>
          </g>
          <g id="svga-group-mustache-single-move" transform="matrix(1,0,0,1,0,0)">
            <g id="svga-group-mustache-single" transform="matrix(1,0,0,1,0,0)">
              <path id="SvgjsPath8265" d="M100,18.13L100,18.13L100,18.13L100,18.13z" fill="#2a232b" stroke-width="none" opacity="1"/>
            </g>
          </g>
          <g id="svga-group-hair-front" transform="matrix(1,0,0,1,0,0)">
            <path id="SvgjsPath9571" d="M81.229 37.267c12.868-1.984 19.271-3.835 26.7-2.011 17.444-4.256 44.396 12.821 44.058 12.472L141.505 9.063 88.143 6.881 81.229 37.267z" fill="#000000" stroke-width="none" opacity="1"/>
            <path id="SvgjsPath9572" d="M50.214 85.807c2.957 4.436 8.314 11.276 12.339 14.709 -2.166-5.199-11.455-39.957-5.884-58.116 6.415 19.058 17.901 30.843 28.959 35.166C90.152 84 96.677 90.884 102.587 95.204c-3.693-7.418-14.389-22.06-13.441-31.808 6.019 10.762 17.187 23.032 22.754 24.513C94.746 59.06 87.155 30.495 98.25 19.439c3.388 2.466 7.684 11.057 9.76 16.067 3.816-6.809 15.501-21.191 21.898-17.104 3.72 0.333 4.728 10.728 7.586 22.708 4.045 16.953 10.875 32.875-4.194 59.398 11.119-7.509 12.444-18.398 15.07-22.79 4.999 10.392-18.126 49.618-21.001 53.267C141.619 122.75 151.022 102.456 154 95c13.552-33.93 9.558-52.597 1.728-83.436 -7.896-9.581-18.07-17.045-29.498-21.929 -19.196-8.478-46.619-8.019-66.12-0.95 -23.241 8.537-45.426 35.3-44.1 59.82 0.534-2.312 1.689-7.771 3.347-10.7 4.39-7.421 7.084-12.414 19.143-22.311 -4.311 7.94-9.086 17.787-11.97 26.22 -0.379 1.2-0.099-0.002-0.92 3.19 -4.831 19.61-4.502 36.043 4.05 57.6 0-0.617-0.12-5.095-0.21-6.84 -0.829-30.82-3.078-26.765 4.546-46.484 -1.788 11.785-5.229 15.159 3.954 54.514 2.669 11.057 7.916 20.029 9.11 21.63 2.258 3.269 11.117 15.923 14.49 20.58 -0.205-0.998-3.327-14.442-3.46-15.01 0.075 0.201 0.149 0.398 0.224 0.6C54.358 117.327 49.203 101.373 50.214 85.807z" fill="#080806" stroke-width="none" opacity="1"/>
            <path id="SvgjsPath9573" d="M155.728 11.564c-1.649-2.001-3.403-3.904-5.241-5.716 11.457 21.016 11.061 63.695 0.934 85.15 7.038-29.279 4.398-51.764-3.538-68.978 1.987 16.464 2.237 31.978-1.69 49.464 -1.172-27.563-6.817-57.424-16.322-59.923 -10.977-2.886-15.539 8.058-20.769 13.673 -0.173-8.436-7.063-13.397-11.004-11.641 -9.891 4.408-8.668 29.141-6.553 40.405 -8.174-20.514-3.401-27.292-2.115-43.828 -13 15-12.089 31.694-7.428 48.829 -11-19-8-43 7-59C67.229 10.592 59.735 34.63 70.185 59.893 58.097 42.439 64.788 21.31 67.229 3.625 52.156 34.975 45.806 45.856 50.778 77c-13.436-30.542 1.965-56.832 9.727-69.149 -6 4-13.519 12.6-17.765 22.646C44.692 23.606 51.123 11.063 59 6c-13.274 4.286-19.292 15.971-22.461 23.692C41.606 7.936 59.577 3.009 66.338-2.241 46.903-0.249 37.683 11.521 30.683 17.521 39.525 3.052 51.008-4.183 69.016-13.938c-3.097 0.738-6.091 1.604-8.907 2.624 -23.241 8.537-45.426 35.3-44.1 59.82 0.534-2.312 1.689-7.771 3.347-10.7 4.39-7.421 7.084-12.414 19.143-22.311 -4.311 7.94-9.086 17.787-11.97 26.22 -0.379 1.2-0.099-0.002-0.92 3.19 -4.831 19.61-4.502 36.043 4.05 57.6 0-0.617-0.12-5.095-0.21-6.84 -0.829-30.82-3.078-26.765 4.546-46.484 -1.788 11.785-5.229 15.159 3.954 54.514 2.669 11.057 7.916 20.029 9.11 21.63 2.258 3.269 11.117 15.923 14.49 20.58 -0.205-0.998-3.327-14.442-3.46-15.01 0.075 0.201 0.149 0.398 0.224 0.6 -3.956-14.168-9.11-30.122-8.1-45.688 2.957 4.436 8.314 11.276 12.339 14.709 -2.166-5.199-11.455-39.957-5.884-58.116 6.415 19.058 17.901 30.843 28.959 35.166C90.152 84 96.677 90.884 102.587 95.204c-3.693-7.418-14.389-22.06-13.441-31.808 6.019 10.762 17.187 23.032 22.754 24.513C94.746 59.06 87.155 30.495 98.25 19.439c3.165 2.303 7.121 9.95 9.321 15.031 0.018-1.067 0.018-1.067 0 0 0.155 0.358 0.303 0.706 0.439 1.036 3.816-6.809 15.501-21.191 21.898-17.104 3.72 0.333 4.728 10.728 7.586 22.708 4.045 16.953 10.875 32.875-4.194 59.398 11.119-7.509 12.444-18.398 15.07-22.79 4.999 10.392-18.126 49.618-21.001 53.267C141.619 122.75 151.022 102.456 154 95 167.552 61.07 163.558 42.403 155.728 11.564z" fill="#000000" stroke-width="none" opacity="1"/>
            <path id="SvgjsPath9574" d="M54.619 131.235c-4.236-6.189-8.827-15.104-12.867-30.5 0 0-0.333-1.27-0.799-3.182 -4.715-19.148-7.161-35.212-2.584-50.318 -2.627 11.899-1.206 21.003 0.692 32.688C41.148 92.628 46.781 117.201 54.619 131.235zM33.619 36.485c-5.395 14.443-7.984 24.807-7.5 39C26.623 65.374 27.51 57.158 33.619 36.485zM55.619 38.985c-2.777 13.875-4.327 20.931-1.716 33.45 1.867 9.42 3.447 14.162 6.216 23.3C52.657 61.519 52.504 64.386 55.619 38.985zM72.869 41.735c1.788 20.072 12.09 36.972 27.25 50.5C86.549 77.997 75.978 60.925 72.869 41.735zM85.619 47.235c5.267 19.48 9.782 27.643 25.61 39.93C96.521 73.738 92.827 67.68 85.619 47.235zM165.804 32.739c-0.605-1.818-6.422-13.972-13.814-22.025 5.357 6.684 9.14 14.642 12.457 21.823 0.001 0 0.112 0.219 0.249 0.629 4.96 13.976 5.59 33.072 5.089 39.832C171.294 63.328 170.692 46.457 165.804 32.739zM152.88 94.235c-4.602 8.878-6.871 12.852-7.598 14.196 0.001 0-0.066 0.145-0.216 0.378 -7.072 11.362-8.508 11.86-15.897 20.216C140.68 117.921 143.675 115.46 152.88 94.235zM143.299 67.99c0.153 13.452-2.029 20.352-9.018 31.167C141.371 89.838 144.452 82.171 143.299 67.99zM53.368 117.333c0 0-0.196-0.748-0.432-1.883 -3.218-15.218-3.527-22.919-3.817-29.715 -0.429 13.946 0.793 27.354 8.5 50.75C57.619 136.485 55.753 127.676 53.368 117.333zM28.804 16.079c3.802-5.144 5.058-6.782 9.815-11.093 -8.532 6.663-14.775 14.633-19.724 29.688 -0.392 1.132-0.346 1.071-0.776 3.062C20.969 28.461 28.804 15.473 28.804 16.079zM57.429 41.485c4.052 13.7 12.798 26.843 25.671 34C71.097 67.419 62.26 54.079 57.429 41.485zM134.553 14.582c-1.265-1.483-2.858-2.238-4.327-2.826 1 0.481 1.648 0.748 2.607 1.548 1.106 1.053 2.361 2.361 3.324 4.244 5.606 10.221 9.457 41.919 10.297 52.955C146.421 59.6 143.574 24.02 134.553 14.582zM97.769 13.216c4.979 0.069 8.812 0.213 12.009 12.171C107.379 12.334 101.588 13.007 97.769 13.216zM89.335-0.068C80.56 6.535 75.979 18.659 75.792 29.408 76.833 18.938 81.454 6.861 89.335-0.068z" fill="#171714" stroke-width="none" opacity="1"/>
            <path id="SvgjsPath9575" d="M155.831 11.662c-7.896-9.582-18.174-17.143-29.602-22.027 -19.196-8.478-46.619-8.019-66.12-0.95 -23.241 8.537-45.426 35.3-44.1 59.82 2.566-11.025 8.714-20.72 22.49-33.01 -4.311 7.94-9.086 17.787-11.97 26.22 -0.379 1.2-0.099-0.002-0.92 3.19 -4.831 19.61-4.502 36.043 4.05 57.6 0-0.617-0.12-5.095-0.21-6.84 -0.829-30.82 0.813-32.675 5.837-51.161 -3.8 12.478-6.519 19.835 2.663 59.19 2.669 11.057 7.916 20.029 9.11 21.63 2.258 3.269 11.117 15.923 14.49 20.58 -0.206-1-11.993-45.903-11.29-58.21 3.365 4.433 9.484 11.38 13.86 14.88 -2.168-6.381-5.93-23.423-6.5-27.07 -0.09-0.65-0.22-1.57-0.38-2.68 -1.189-7.291-1.932-21.021-0.26-29.18 1.481 5.059 4.965 13.05 8.2 17.43 6.745 9.379 9.956 11.43 19.71 16.9 6.016 8.228 11.756 13.338 19.13 18.68 -11.845-20.011-13.297-24.944-14.49-32.12 5.456 11.223 12.598 19.667 23.689 24.61 -8.703-17.044-22.838-44.488-17.459-62.38 0.946-3.081 2.045-5.154 2.57-5.85v-0.02c0.068-0.147 0.06-0.129 0.1-0.2 1.688 1.205 7.787 9.563 9.5 15.56 0.011-0.01 0.011-0.02 0.021-0.03 1.267-2.533 4.484-7.169 7.729-10.56 16.615-16.613 16.758-2.04 18.721 7.41 8.082 32.594 11.446 46.342-3.431 69.58 8.596-3.947 15.656-15.089 17.521-24.45 -3.159 23.102-11.221 34.676-23.69 55.74 2.91-2.089 2.59-1.882 3.59-2.61 32.326-22.212 42.264-80.399 30.242-102.902 8.775 19.989 0.511 75.588-29.771 101.052 19.955-29.485 20.537-43.486 22.56-65.62 1.35-14.309 0.449-18.735-0.479-23.47 0.543 4.677 0.84 7.448-0.261 17.42 -1.973 15.043-4.987 31.514-16.689 41.79 13.733-20.855 10.343-35.993 2.68-65.98 -1.979-7.784-2.434-23.397-15.47-14.3 -5.16 3.425-10.166 10.124-12.99 15.68 -1.562-5.649-4.792-11.777-9.97-17.24 -0.02-0.02-0.05-0.07-0.07-0.06 -1.822 2.912-10.67 11.246-2.61 37.07 3.86 12.465 9.448 22.083 15.67 32.39 -13.746-7.828-28.114-32.458-26.791-51.62 0.313-5.359 1.382-12.417 1.22-17.9 -0.807 13.3-5.346 21.354-0.98 34.6 0 0 1.26 4.12 3.15 8.55 0.561 13.101 6.94 22.296 13.94 33.65 -17.286-15.125-27.847-36.655-30.3-57.9 -0.6-8.81 3.465-23.018 7.2-25.15 -3.907 2.627-8.805 12.239-9.31 23.48 -0.385 10.926 6.498 30.484 14.2 41.27 -9.374-6.058-18.5-12.899-26.13-34.66 1.899-8.935 4.806-14.084 5.6-25.91 -1.883 12.57-4.897 15.589-8.03 28.11 -2.011 7.073-2.438 30.361 6.75 55.33 -5.463-6.071-14.528-19.557-16.93-27.3 -8.496-22.848 3.521-47.839 6.52-51.8 1.659-2.32 4.089-4.836 5.07-7.43 -3.984 6.947-6.792 4.377-14.27 24.56 -3.99 11.964-3.175 25.464 0.46 35.44 1.321 3.516 4.859 9.505 6.88 14.2 -1.688 13.469 5.969 41.852 9.82 54.5 -10.324-16.373-17.78-24.85-22.22-53.02 -3.586-22.754-7.284-36.619 11.98-75.14 -3.442 6.136-5.164 9.043-9.13 17.13l-0.01 0.01c-9.9 20.647-13.651 35.24-12.38 60.03 -6.982-29.604 0.523-49.203 13.14-76.29C42.383 11.562 54.786 3.262 59.629 0c-4.802 2.877-35.973 19.182-42.84 43.215C19.123 22.46 38.134-1.463 60.599-9.475c18.812-6.53 46.021-7.101 64.75 1.18 12.789 5.481 23.954 14.45 31.83 25.437L155.831 11.662z" fill="#000000" stroke-width="none" opacity="1"/>
          </g>
          <g id="svga-group-glasses-single-move" transform="matrix(1,0,0,1,0,0)">
            <g id="svga-group-glasses-single" transform="matrix(1,0,0,1,0,0)">
              <path id="SvgjsPath9709" d="M129.33 110.52c-7.03 0-12.01-2.78-15.7-8.75 -4.81-7.8-8.01-14.71-8.01-23.12 0-2.85 1.97-4.56 6.04-5.24 2.84-0.47 16.05-0.98 23.2-0.98 1.47 0 2.58 0.02 3.3 0.07 3.57 0.21 7.26 0.85 9.96 4.06 1.22 1.44 4.42 7.04 4.42 11.09v5.26c0 9.78-7.78 17.32-18.09 17.52l-4.59 0.09C129.69 110.52 129.51 110.52 129.33 110.52zM70.67 110.52c-0.18 0-0.36 0-0.54 0l-4.59-0.09c-10.31-0.21-18.09-7.74-18.09-17.52v-5.26c0-4.05 3.2-9.65 4.42-11.09 2.71-3.21 6.39-3.85 9.96-4.06 0.72-0.04 1.83-0.07 3.3-0.07 7.15 0 20.36 0.51 23.2 0.98 4.07 0.68 6.04 2.39 6.04 5.24 0 8.4-3.21 15.32-8.02 23.12C82.68 107.74 77.69 110.52 70.67 110.52z" fill="url(#SvgjsLinearGradient9710)" opacity="1"/>
              <path id="SvgjsPath9713" d="M56.94 108.31c-5.74-2.93-9.48-8.63-9.48-15.41v-5.26c0-4.05 3.2-9.65 4.42-11.09 2.67-3.17 6.3-3.83 9.83-4.05C51.07 79.2 51.67 97.71 56.94 108.31zM148.13 76.55c-2.67-3.17-6.3-3.83-9.83-4.05 10.64 6.69 10.04 25.2 4.77 35.81 5.74-2.93 9.48-8.62 9.48-15.41v-5.26C152.55 83.59 149.34 78 148.13 76.55z" fill="#5b1d0d" stroke-width="none" opacity="0.06"/>
              <path id="SvgjsPath9714" d="M157.75 82.87c-2.52-0.67-4.58-2.2-5.04-3.35 -1.86-4.74-6.53-9.23-14.24-9.58 -3.38 0-73.59 0-76.93 0 -7.72 0.35-12.39 4.84-14.25 9.58 -0.45 1.16-2.52 2.69-5.04 3.35 -0.42 0.11-0.72 0.5-0.72 0.94v3.27c0 0.37 0.17 0.72 0.46 0.96l0.8 0.64c0.86 0.69 1.43 1.67 1.6 2.77 1.01 6.54 5.23 13.85 6.89 15.32 5.68 5.03 11.24 4.98 17.31 5.37 9.43 0.62 16.54-3.78 19.49-6.41 3.12-2.78 6.38-11.79 7.3-14.7 1.88-5.95 7.36-5.96 9.24 0 0.92 2.92 4.18 11.92 7.3 14.7 2.95 2.63 10.07 7.02 19.49 6.41 6.07-0.4 11.63-0.34 17.31-5.37 1.66-1.47 5.88-8.79 6.89-15.32 0.17-1.09 0.74-2.08 1.6-2.77l0.8-0.64c0.29-0.23 0.46-0.58 0.46-0.96v-3.27C158.47 83.36 158.17 82.98 157.75 82.87zM86.15 101.62c-3.31 5.37-8.1 8.77-15.98 8.61l-4.59-0.09c-9.83-0.2-17.8-7.4-17.8-17.23v-5.26c0-3.89 3.13-9.46 4.35-10.9 2.51-2.98 5.87-3.73 9.76-3.96 4.42-0.26 22.94 0.33 26.44 0.91 3.16 0.53 5.8 1.75 5.8 4.96C94.12 86.79 91.08 93.62 86.15 101.62zM152.23 92.9c0 9.84-7.97 17.03-17.8 17.23l-4.59 0.09c-7.88 0.16-12.67-3.24-15.98-8.61 -4.93-8-7.97-14.83-7.97-22.97 0-3.2 2.64-4.43 5.8-4.96 3.5-0.58 22.02-1.18 26.44-0.91 3.89 0.23 7.25 0.98 9.76 3.96 1.22 1.44 4.35 7.01 4.35 10.9V92.9z" fill="#000000" stroke-width="none" opacity="1"/>
              <path id="SvgjsPath9715" d="M101.77 74.84v8.15c0 2.39-3.57 2.4-3.57 0v-8.15C98.2 72.5 101.77 72.45 101.77 74.84zM154.28 84.27c-0.59-1-1.08-2.05-1.58-3.11 -1.05-2.24-2.13-4.72-4.02-6.39 -2.29-2.03-4.97-3.8-9.5-4.26 -1.57 0-77.16 0-78.36 0 -4.53 0.46-7.21 2.24-9.5 4.26 -1.89 1.67-2.98 4.16-4.03 6.39 -0.49 1.05-0.99 2.1-1.58 3.11 -0.88 1.49-2.67 1.63-4.22 1.49v0.72c1.27 0.11 2.48 0.01 3.62-0.61 1.27-0.69 1.87-2.38 2.45-3.6 1.59-3.34 3.02-6.46 6.3-8.44 2.21-1.34 4.4-2.36 6.94-2.45 1.19 0 76.94 0 78.37 0 2.54 0.09 4.73 1.11 6.94 2.45 3.28 1.98 4.71 5.1 6.3 8.44 0.58 1.23 1.18 2.91 2.45 3.6 1.14 0.62 2.35 0.72 3.62 0.61v-0.72C156.96 85.9 155.16 85.76 154.28 84.27z" fill="#000000" stroke-width="none" opacity="1"/>
              <path id="SvgjsPath9716" d="M95.04 92.06c-2.51 6.33-4.42 13.08-9.92 15.86L95.04 92.06zM104.96 92.06c2.51 6.33 4.42 13.08 9.92 15.86L104.96 92.06z" fill="#000000" stroke-width="none" opacity="1"/>
              <path id="SvgjsPath9717" d="M138.99 70.31H61.01v-0.5h77.98V70.31z" fill="#0f0f0f" stroke-width="none" opacity="1"/>
            </g>
          </g>
        </g>
      </g>
    </g>
    <rect id="SvgjsRect7615" width="200" height="15" x="0" y="185" fill="#ecf0f1" opacity="0.5" style="display: none;"/>
    <text id="SvgjsText7616" font-family="Roboto, Helvetica, Arial, sans-serif" font-size="10px" text-anchor="start" font-weight="400" anchor="start" fill="#333333" x="38.8125" y="182.4296875" style="display: none;">
      <tspan id="SvgjsTspan7617" dy="13" x="38.8125">Created on svgAvatars.com</tspan>
    </text>
  </g>
</svg>
